<?xml version="1.0" encoding="UTF-8"?><svg id="Aperol" xmlns="http://www.w3.org/2000/svg" xmlns:xlink="http://www.w3.org/1999/xlink" viewBox="0 0 200 300"><defs><style>.cls-1{opacity:.11;}.cls-1,.cls-2{fill:#e9f2ed;}.cls-3{fill:url(#linear-gradient);}.cls-4{mask:url(#mask);}.cls-5{filter:url(#luminosity-noclip);}.cls-6{fill:#f19f1f;}.cls-7{fill:#e7edf1;}.cls-8{fill:#fff0e2;}.cls-9{fill:#f6851f;}.cls-10{fill:#e8eae9;}.cls-11{fill:#dfe8ed;}.cls-12{fill:#e1eaef;}.cls-13{fill:none;}.cls-13,.cls-14{stroke:#4faade;stroke-miterlimit:10;stroke-width:.113px;}.cls-15{opacity:.6;}.cls-16{opacity:.54;}.cls-14{fill:#e1e8ec;}</style><filter id="luminosity-noclip" x="41.409" y="63" width="108" height="97" color-interpolation-filters="sRGB" filterUnits="userSpaceOnUse"><feFlood flood-color="#fff" result="bg"/><feBlend in="SourceGraphic" in2="bg"/></filter><mask id="mask" x="41.409" y="63" width="108" height="97" maskUnits="userSpaceOnUse"><g class="cls-5"><image width="108" height="97" transform="translate(41.409 63)" xlink:href="Aperol_11.png"/></g></mask><linearGradient id="linear-gradient" x1="111.832" y1="136.43" x2="84.374" y2="82.042" gradientUnits="userSpaceOnUse"><stop offset="0" stop-color="#ee4823"/><stop offset=".283" stop-color="#ee4b22"/><stop offset=".519" stop-color="#e52"/><stop offset=".737" stop-color="#ef6622"/><stop offset=".944" stop-color="#f07f21"/><stop offset="1" stop-color="#f18721"/></linearGradient></defs><path id="glas" class="cls-12" d="m133.568,57.106c-1.449,3.057-9.02,4.357-14.52,4.945-7.296.78-13.14,1.04-19.93,1.322-1.712.071-3.657.034-5.371.034-2.32,0-3.901.065-5.616.001-3.981-.148-6.194-.279-9.598-.573-3.895-.337-5.927-.648-9.046-1.488-2.811-.757-5.652-1.388-8.473-2.107-1.411-.36-3.982-1.244-5.413-1.678-6.136,15.809-9.283,26.873-12.75,43.235-6.866,32.405,22.512,59.477,52.75,59.477s55.06-23.952,52.5-56.977c-1.48-19.088-8.026-31.065-14.534-46.192Z"/><ellipse class="cls-7" cx="94.518" cy="261.024" rx="39.75" ry="10.75"/><ellipse class="cls-14" cx="94.715" cy="58.562" rx="39.483" ry="6.784"/><path class="cls-2" d="m114.852,86.922l1.342.42c.628.196,1.296-.153,1.492-.781,2.678-8.556,5.355-17.113,8.033-25.669,1.998-6.385,3.996-12.77,5.995-19.156.024-.076.142-.481-.081-.908-.141-.27-.386-.486-.7-.584l-1.342-.42c-.628-.196-1.296.153-1.492.781l-6.63,21.185c-2.466,7.88-4.932,15.76-7.398,23.639-.024.076-.142.481.781,1.492Z"/><g id="aperol"><g class="cls-4"><path class="cls-3" d="m136.265,65.346c-3.325,3.364-13.042,5.521-17.726,6.06-6.492.747-13.053.619-19.577.868-1.645.063-3.514.03-5.161.03-2.229,0-3.748.057-5.396,0-3.825-.131-5.951-.247-9.221-.507-3.742-.298-5.695-.573-8.691-1.316-2.701-.669-5.431-1.227-8.141-1.863-1.356-.318-7.635-1.517-9.01-1.9-5.896,13.978-7.041,24.764-9.111,38.17-4.487,29.057,22.3,53.062,51.353,53.062s51.995-21.334,50.923-50.617c-.579-15.823-3.988-28.614-10.241-41.988Z"/></g></g><path class="cls-1" d="m137.55,91.189c-.942,3.535-2.337,6.992-3.931,10.305-2.694,5.601-5.813,11.091-9.121,16.43-3.318,5.357-6.961,10.558-10.977,15.534-3.931,4.872-8.213,9.539-12.879,13.884-2.375,2.212-5.012,4.43-8.003,6.039,16.458,2.673,33.931-4.352,43.64-19.082,8.996-13.649,8.921-30.267,1.271-43.11Z"/><g class="cls-16"><path class="cls-6" d="m136.7,82.356c5.27,7.24,3.823,17.273-3.233,22.41s-17.049,3.432-22.319-3.808"/><path class="cls-8" d="m135.348,83.34c4.713,6.474,3.418,15.445-2.891,20.038s-15.245,3.069-19.957-3.405"/><g><path class="cls-9" d="m127.336,91.327l9.25-.108c.69-.008,1.26-.579,1.097-1.099l-1.589-5.077c-.163-.52-.956-.664-1.528-.277l-7.661,5.185c-.739.5-.462,1.387.431,1.376Z"/><path class="cls-9" d="m126.868,93.399l7.547,5.35c.563.399,1.36.273,1.534-.244l1.699-5.041c.174-.517-.383-1.099-1.073-1.123l-9.246-.309c-.892-.03-1.189.85-.46,1.367Z"/><path class="cls-9" d="m125.271,94.8l2.961,8.764c.221.654.94,1.02,1.384.704l4.337-3.08c.444-.316.336-1.115-.209-1.539l-7.299-5.684c-.704-.548-1.462-.011-1.176.835Z"/><path class="cls-9" d="m123.156,94.995l-2.756,8.831c-.206.659.161,1.377.706,1.383l5.319.058c.545.006.927-.704.736-1.368l-2.564-8.889c-.247-.858-1.176-.868-1.442-.016Z"/><path class="cls-9" d="m121.33,93.909l-7.42,5.525c-.554.412-.679,1.209-.242,1.534l4.27,3.173c.438.325,1.164-.025,1.399-.674l3.151-8.698c.304-.839-.441-1.393-1.157-.86Z"/></g></g><g class="cls-15"><path class="cls-6" d="m65.671,105.062c4.991,1.921,7.372,7.807,5.317,13.145s-7.767,8.109-12.758,6.187"/><path class="cls-8" d="m65.277,106.085c4.463,1.718,6.591,6.98,4.754,11.754s-6.945,7.25-11.408,5.532"/><g><path class="cls-9" d="m63.552,113.438l4.641-3.083c.346-.23.417-.717.136-.938l-2.741-2.155c-.281-.221-.737-.037-.879.354l-1.899,5.238c-.183.505.295.882.743.584Z"/><path class="cls-9" d="m64,114.631l5.567.233c.415.017.759-.335.661-.679l-.951-3.354c-.097-.344-.575-.463-.919-.231l-4.615,3.121c-.445.301-.279.887.258.909Z"/><path class="cls-9" d="m63.661,115.86l4.366,3.461c.326.258.811.175.934-.16l1.202-3.273c.123-.335-.193-.713-.608-.727l-5.568-.188c-.537-.018-.747.553-.326.887Z"/><path class="cls-9" d="m62.665,116.655l1.498,5.366c.112.4.553.618.85.419l2.896-1.941c.297-.199.263-.69-.065-.946l-4.394-3.425c-.424-.33-.93.008-.785.526Z"/><path class="cls-9" d="m61.392,116.712l-1.942,5.222c-.145.39.084.825.441.839l3.484.132c.357.014.618-.403.503-.803l-1.542-5.354c-.149-.517-.757-.54-.944-.036Z"/></g></g><g><path class="cls-6" d="m85.761,107.688c-9.929,7.255-23.945,4.969-31.307-5.106-7.362-10.075-5.281-24.123,4.648-31.378"/><path class="cls-8" d="m84.351,105.758c-8.878,6.487-21.411,4.443-27.994-4.566-6.583-9.009-4.722-21.57,4.156-28.057"/><g><path class="cls-9" d="m72.909,94.138l.178,12.746c.013.951.828,1.716,1.568,1.474l7.227-2.37c.741-.243.944-1.342.391-2.116l-7.405-10.376c-.714-1.001-1.976-.587-1.959.642Z"/><path class="cls-9" d="m70.056,93.509l-7.348,10.416c-.548.777-.339,1.875.402,2.114l7.24,2.331c.742.239,1.552-.531,1.56-1.482l.108-12.747c.01-1.23-1.254-1.637-1.963-.632Z"/><path class="cls-9" d="m68.117,91.322l-12.067,4.108c-.901.307-1.377,1.317-.917,1.947l4.487,6.141c.46.629,1.568.483,2.133-.282l7.58-10.249c.731-.989-.052-2.061-1.216-1.665Z"/><path class="cls-9" d="m67.833,88.414l-12.177-3.77c-.909-.281-1.888.257-1.886,1.036l.021,7.605c.002.779.984,1.312,1.892,1.026l12.156-3.836c1.173-.37,1.169-1.698-.006-2.062Z"/><path class="cls-9" d="m69.313,85.895l-7.636-10.207c-.57-.762-1.678-.902-2.135-.27l-4.454,6.165c-.456.632.025,1.64.927,1.942l12.089,4.042c1.166.39,1.944-.686,1.207-1.671Z"/></g></g><path class="cls-10" d="m143.604,29.088h1.758c.56,0,1.015.455,1.015,1.015v33.767h-2.773c-.56,0-1.015-.455-1.015-1.015V30.103c0-.56.455-1.015,1.015-1.015Z" transform="translate(231.991 -77.528) rotate(107.377)"/><path class="cls-11" d="m93.421,160.274h6.503v100.75h-6.503c-1.776,0-3.218-1.442-3.218-3.218v-94.315c0-1.776,1.442-3.218,3.218-3.218Z"/><path class="cls-13" d="m134.199,58.562c0,3.747-17.677,6.784-39.483,6.784s-39.483-3.037-39.483-6.784"/></svg>