<?xml version="1.0" encoding="UTF-8"?><svg id="Layer_1" xmlns="http://www.w3.org/2000/svg" xmlns:xlink="http://www.w3.org/1999/xlink" viewBox="0 0 200 300"><defs><style>.cls-1{fill:none;}.cls-2{clip-path:url(#clippath);}.cls-3{fill:#f2f2f2;}.cls-4,.cls-5{fill:#e6e6e6;}.cls-6{fill:#86d919;}.cls-7{fill:#666;}.cls-8{fill:#333;}.cls-9{fill:#aa4200;}.cls-10{fill:#b2d919;}.cls-11{fill:#cd4737;}.cls-12{fill:#1a1a1a;}.cls-13{fill:#86bd19;}.cls-14{fill:#4d4d4d;}.cls-15{clip-path:url(#clippath-1);}.cls-16{clip-path:url(#clippath-2);}.cls-17{fill:#b3b3b3;}.cls-17,.cls-5{isolation:isolate;}</style><clipPath id="clippath"><rect class="cls-1" x="31.818" y="0" width="122.168" height="299.556"/></clipPath><clipPath id="clippath-1"><rect class="cls-1" x="31.818" y="0" width="122.168" height="299.556"/></clipPath><clipPath id="clippath-2"><rect class="cls-1" x="31.818" y="0" width="122.168" height="299.556"/></clipPath></defs><rect id="Rectangle_134" class="cls-3" x="43.209" y="89.01" width="110.743" height="194.576"/><g id="Group_85"><g class="cls-2"><g id="Group_84"><path id="Path_221" class="cls-4" d="m153.953,89.526c0,14.004-24.792,25.357-55.371,25.357s-55.371-11.353-55.371-25.357,24.791-25.357,55.371-25.357,55.371,11.353,55.371,25.357"/><path id="Path_222" class="cls-9" d="m51.49,131.442c.517-2.233,4.489-3.208,12.42-5.175,2.939-.724,7.669-1.679,18.63-2.07,2.892-.103,8.195-.238,16.56,0,10.291.293,17.666.529,26.909,2.07,11.359,1.894,17.039,2.841,17.595,5.175,1.423,5.995-22.179,22.275-47.609,21.735-23.977-.509-45.872-15.892-44.504-21.735"/><path id="Path_223" class="cls-3" d="m43.21,283.585c-.103,2.094,2.909,3.945,8.28,7.245,4.356,2.677,9.253,4.607,17.595,6.21,2.106.405,7.893,1.449,22.77,2.07,11.356.47,17.035.705,24.84,0,8.572-.774,14.044-1.269,20.7-4.14,1.159-.5,17.435-7.649,16.56-13.455-1.322-8.757-40.872-9.234-47.609-9.315-29.044-.35-62.792,4.508-63.134,11.385"/><path id="Path_224" class="cls-6" d="m64.944,69.344s-5.111,9.798-6.21,9.315c-1.013-.446,3.777-10.173,1.035-12.42-3.336-2.732-15.628,7.395-16.56,6.21-.869-1.1,9.84-9.664,8.28-12.42-1.409-2.484-11.873,1.402-12.42,0-.682-1.746,15.324-8.34,14.49-11.385-.714-2.604-13.415-1.395-13.455-2.07-.043-.707,13.987-1.025,14.49-4.14.525-3.258-14.084-7.506-13.455-10.35.512-2.313,10.519-1.035,11.385-4.14.745-2.673-6.028-6.003-5.175-8.28.833-2.225,7.749-.254,9.315-3.105,1.514-2.76-3.59-7.117-2.07-9.315,1.129-1.633,4.152.476,8.28-1.035C67.654,4.46,68.392-.126,71.154,0c2.138.103,3.45,2.922,5.175,6.21,6.21,11.84,7.903,11.24,9.315,15.525,2.581,7.845-2.29,12.309-20.7,47.609"/><path id="Path_225" class="cls-13" d="m71.154,71.414c-4.159,5.976-9.803,11.307-11.385,10.35-2.43-1.47,5.363-17.388,3.105-18.63-1.884-1.035-8.808,9.203-10.35,8.28-1.811-1.084,6.474-15.946,4.14-17.595-2.433-1.717-14.953,11.922-15.525,11.385-.664-.621,17.602-17.877,14.49-22.77-2.905-4.567-23.369,3.379-23.805,2.07-.447-1.345,21.479-8.526,20.7-13.455-.454-2.874-8.383-3.406-8.28-5.175.141-2.527,16.401-2.779,16.56-5.175.144-2.203-13.504-3.648-13.455-6.21.034-1.812,6.927-4.209,13.455-3.105,9.565,1.62,15.224,10.233,16.56,12.42,9.745,15.969,1.147,37.034-6.21,47.609"/><rect id="Rectangle_135" class="cls-10" x="64.944" y="19.667" width="20.7" height="223.556"/></g></g></g><g id="Group_92"><g class="cls-15"><g id="Group_91"><rect id="Rectangle_139" class="cls-13" x="64.944" y="19.667" width="10.35" height="126.268"/></g></g></g><rect class="cls-5" x="91.89" y="118.586" width="29.502" height="30.923" transform="translate(55.971 -29.579) rotate(21.298)"/><rect class="cls-17" x="110.887" y="123.616" width="21.74" height="21.606" transform="translate(148.793 -44.919) rotate(50.743)"/><g id="Group_99"><g class="cls-16"><g id="Group_98"><path id="Path_228" class="cls-9" d="m56.665,134.547c-.621,1.536,6.454,6.373,13.455,9.315,7.845,3.297,11.228,2.298,27.944,4.14,19.266,2.124,22.076,3.507,27.944,1.035,7.197-3.031,13.589-9.528,12.42-12.42-.749-1.852-4.322-1.999-8.28-2.07-14.509-.261-25.448.699-30.014,1.035-13.61,1.003-21.424,1.579-32.084,0-6.237-.923-10.912-2.209-11.385-1.035"/><path id="Path_229" class="cls-11" d="m143.603,279.445c-28.828,15.182-63.285,15.182-92.113,0v-148.002c28.471,16.562,63.642,16.562,92.113,0v148.002Z"/><path id="Path_230" class="cls-12" d="m112.553,208.031c0,1.143-.927,2.07-2.07,2.07s-2.07-.927-2.07-2.07.927-2.07,2.07-2.07,2.07.927,2.07,2.07"/><path id="Path_231" class="cls-14" d="m76.329,246.843c0,.857-.695,1.552-1.552,1.552s-1.552-.695-1.552-1.552.695-1.552,1.552-1.552h0c.857,0,1.552.695,1.552,1.552"/><path id="Path_232" class="cls-7" d="m121.868,166.114c0,.857-.695,1.552-1.552,1.552s-1.552-.695-1.552-1.552.695-1.552,1.552-1.552,1.552.695,1.552,1.552"/><path id="Path_233" class="cls-8" d="m65.979,168.184c0,.857-.695,1.552-1.552,1.552s-1.552-.695-1.552-1.552.695-1.552,1.552-1.552,1.552.695,1.552,1.552"/><path id="Path_234" class="cls-14" d="m73.224,179.569c0,.857-.695,1.552-1.552,1.552s-1.552-.695-1.552-1.552.695-1.552,1.552-1.552,1.552.695,1.552,1.552"/><path id="Path_235" class="cls-14" d="m116.693,264.955c0,.572-.463,1.035-1.035,1.035s-1.035-.463-1.035-1.035.463-1.035,1.035-1.035,1.035.463,1.035,1.035"/><path id="Path_236" class="cls-7" d="m118.763,260.298c0,.857-.695,1.552-1.552,1.552s-1.552-.695-1.552-1.552.695-1.552,1.552-1.552,1.552.695,1.552,1.552"/><path id="Path_237" d="m115.658,256.158c0,.857-.695,1.552-1.552,1.552s-1.552-.695-1.552-1.552.695-1.552,1.552-1.552,1.552.695,1.552,1.552h0"/><path id="Path_238" class="cls-14" d="m115.658,216.828c0,.857-.695,1.552-1.552,1.552s-1.552-.695-1.552-1.552.695-1.552,1.552-1.552,1.552.695,1.552,1.552"/></g></g></g></svg>