<?xml version="1.0" encoding="UTF-8"?><svg xmlns="http://www.w3.org/2000/svg" xmlns:xlink="http://www.w3.org/1999/xlink" viewBox="0 0 200 300"><defs><style>.cls-1{fill:none;}.cls-1,.cls-2{stroke:#4faade;stroke-miterlimit:10;stroke-width:.103px;}.cls-3{fill:url(#linear-gradient);}.cls-4{filter:url(#luminosity-noclip-2);}.cls-5{mask:url(#mask);}.cls-6{filter:url(#luminosity-noclip);}.cls-7{fill:#020202;}.cls-8{fill:#e1eaef;}.cls-9{fill:#3e2049;}.cls-10{fill:#704683;}.cls-11{fill:url(#linear-gradient-8);}.cls-12{fill:url(#linear-gradient-9);}.cls-13{fill:url(#linear-gradient-3);}.cls-14{fill:url(#linear-gradient-4);}.cls-15{fill:url(#linear-gradient-2);}.cls-16{fill:url(#linear-gradient-6);}.cls-17{fill:url(#linear-gradient-7);}.cls-18{fill:url(#linear-gradient-5);}.cls-2{fill:#d8e1e5;}.cls-19{fill:url(#linear-gradient-12);}.cls-20{fill:url(#linear-gradient-10);}.cls-21{fill:url(#linear-gradient-11);}.cls-22{mask:url(#mask-1);}</style><filter id="luminosity-noclip" x="50.08" y="126.96" width="100.08" height="86.16" color-interpolation-filters="sRGB" filterUnits="userSpaceOnUse"><feFlood flood-color="#fff" result="bg"/><feBlend in="SourceGraphic" in2="bg"/></filter><mask id="mask" x="50.08" y="126.96" width="100.08" height="86.16" maskUnits="userSpaceOnUse"><g class="cls-6"><image width="417" height="359" transform="translate(50.08 126.96) scale(.24)" xlink:href="Bramble1.png"/></g></mask><linearGradient id="linear-gradient" x1="97.777" y1="188.687" x2="101.162" y2="104.245" gradientUnits="userSpaceOnUse"><stop offset="0" stop-color="#570c1d"/><stop offset=".107" stop-color="#6f2436"/><stop offset=".295" stop-color="#954a5d"/><stop offset=".482" stop-color="#b2677b"/><stop offset=".664" stop-color="#c87d91"/><stop offset=".839" stop-color="#d4899e"/><stop offset="1" stop-color="#d98ea3"/></linearGradient><filter id="luminosity-noclip-2" x="49.84" y="124.8" width="100.32" height="11.52" color-interpolation-filters="sRGB" filterUnits="userSpaceOnUse"><feFlood flood-color="#fff" result="bg"/><feBlend in="SourceGraphic" in2="bg"/></filter><mask id="mask-1" x="49.84" y="124.8" width="100.32" height="11.52" maskUnits="userSpaceOnUse"><g class="cls-4"><image width="418" height="48" transform="translate(49.84 124.8) scale(.24)" xlink:href="Bramble2.png"/></g></mask><linearGradient id="linear-gradient-2" x1="99.703" y1="137.995" x2="100.027" y2="129.896" gradientUnits="userSpaceOnUse"><stop offset="0" stop-color="#570c1d"/><stop offset=".107" stop-color="#6f2436"/><stop offset=".295" stop-color="#954a5d"/><stop offset=".482" stop-color="#b2677b"/><stop offset=".664" stop-color="#c87d91"/><stop offset=".839" stop-color="#d4899e"/><stop offset="1" stop-color="#d98ea3"/></linearGradient><linearGradient id="linear-gradient-3" x1="71.764" y1="117.446" x2="71.885" y2="114.409" gradientTransform="translate(147.261 289.762) rotate(175.279)" gradientUnits="userSpaceOnUse"><stop offset="0" stop-color="#570c1d"/><stop offset=".424" stop-color="#580d1e"/><stop offset=".577" stop-color="#5f1425"/><stop offset=".686" stop-color="#6a1f31"/><stop offset=".774" stop-color="#7b3042"/><stop offset=".849" stop-color="#904558"/><stop offset=".916" stop-color="#aa5f73"/><stop offset=".975" stop-color="#c97e93"/><stop offset="1" stop-color="#d98ea3"/></linearGradient><linearGradient id="linear-gradient-4" x1="68.916" y1="114.107" x2="68.994" y2="112.138" xlink:href="#linear-gradient-3"/><linearGradient id="linear-gradient-5" x1="67.367" y1="119.341" x2="67.535" y2="115.142" xlink:href="#linear-gradient-3"/><linearGradient id="linear-gradient-6" x1="70.935" y1="119.793" x2="70.991" y2="118.4" xlink:href="#linear-gradient-3"/><linearGradient id="linear-gradient-7" x1="3.077" y1="142.603" x2="3.176" y2="140.139" gradientTransform="translate(121.086 8.06) rotate(-4.721)" gradientUnits="userSpaceOnUse"><stop offset="0" stop-color="#570c1d"/><stop offset=".184" stop-color="#73283a"/><stop offset=".565" stop-color="#aa5f72"/><stop offset=".848" stop-color="#cc8195"/><stop offset="1" stop-color="#d98ea3"/></linearGradient><linearGradient id="linear-gradient-8" x1="-1.051" y1="144.881" x2="-.903" y2="141.192" xlink:href="#linear-gradient-7"/><linearGradient id="linear-gradient-9" x1="1.801" y1="144.835" x2="1.854" y2="143.512" xlink:href="#linear-gradient-7"/><linearGradient id="linear-gradient-10" x1=".865" y1="146.811" x2=".918" y2="145.489" xlink:href="#linear-gradient-7"/><linearGradient id="linear-gradient-11" x1="2.987" y1="146.785" x2="3.06" y2="144.974" xlink:href="#linear-gradient-7"/><linearGradient id="linear-gradient-12" x1="3.94" y1="144.782" x2="3.993" y2="143.46" xlink:href="#linear-gradient-7"/></defs><g id="bramble"><path class="cls-8" d="m135.235,218.929h-70.108c-6.593,0-11.938-5.345-11.938-11.938l-2.311-85.854h98.243l-1.948,85.854c0,6.593-5.345,11.938-11.938,11.938Z"/><ellipse class="cls-2" cx="100" cy="121.05" rx="49.121" ry="4.499"/><g class="cls-5"><path class="cls-3" d="m132.654,210.916h-64.973c-6.11,0-11.063-4.469-11.063-9.982l-4.391-71.539,95.863-.246-4.373,71.785c0,5.513-4.953,9.982-11.063,9.982Z"/></g><g class="cls-22"><ellipse class="cls-15" cx="100" cy="130.581" rx="47.932" ry="3.594"/></g><circle class="cls-13" cx="66.138" cy="180.139" r="1.52"/><circle class="cls-14" cx="69.229" cy="182.698" r=".985"/><circle class="cls-18" cx="70.389" cy="178.47" r="2.101"/><circle class="cls-16" cx="66.736" cy="176.91" r=".697"/><circle class="cls-17" cx="135.838" cy="148.694" r="1.233"/><circle class="cls-11" cx="131.885" cy="150.692" r="1.846"/><circle class="cls-12" cx="134.774" cy="151.594" r=".662"/><circle class="cls-20" cx="134.004" cy="153.641" r=".662"/><circle class="cls-21" cx="136.106" cy="153.196" r=".906"/><circle class="cls-19" cx="136.902" cy="151.366" r=".662"/><g><path class="cls-9" d="m146.496,121.478c0-1.733-1.424-3.157-3.157-3.157-.248,0-.495.031-.743.093-.619-.619-1.455-1.022-2.384-1.022-1.3,0-2.445.774-3.033,1.919-.526-.526-1.269-.867-2.105-.867-1.672,0-3.034,1.362-3.034,3.033,0,.464.093.898.31,1.269-.805.557-1.331,1.486-1.331,2.538,0,1.486,1.084,2.724,2.477,2.972-.31.495-.464,1.052-.464,1.64,0,1.826,1.486,3.281,3.281,3.281.96,0,1.826-.402,2.415-1.083.495.96,1.517,1.61,2.693,1.61,1.702,0,3.095-1.362,3.095-3.095,0-.619-.186-1.207-.495-1.672,1.331-.278,2.353-1.517,2.353-2.941,0-.867-.34-1.64-.929-2.198.65-.557,1.052-1.393,1.052-2.322Zm-7.398,7.009c-.093-.031.296.101.204.039.031-.062.027-.186-.047-.221.062.093-.187.09-.156.182Z"/><path class="cls-10" d="m142.924,119.002c.096-.27,1.308-.28,2.178.33.542.38.777.879.858,1.056.091.199.439.992.132,1.881-.169.491-.565,1.087-.792,1.023-.303-.086.152-1.211-.363-2.343-.615-1.353-2.124-1.635-2.013-1.947Z"/><path class="cls-10" d="m137.558,132.121c.017.308-1.108.76-2.159.459-.655-.187-1.072-.607-1.217-.756-.163-.168-.801-.844-.867-1.855-.037-.559.096-1.306.333-1.323.316-.024.338,1.281,1.265,2.238,1.108,1.145,2.625.881,2.645,1.237Z"/><path class="cls-10" d="m135.05,123.125c.022-.153.306-.158.509.186.126.214.181.496.2.596.021.112.102.56.031,1.061-.04.277-.132.614-.185.577-.071-.048.035-.683-.085-1.322-.144-.763-.496-.923-.47-1.099Z"/><path class="cls-10" d="m142.46,127.851c.002.154-.276.205-.532-.102-.159-.191-.259-.461-.293-.556-.039-.107-.191-.536-.2-1.043-.005-.28.032-.627.09-.599.078.036.075.68.295,1.291.264.73.637.831.64,1.009Z"/><path class="cls-10" d="m139.22,123.292c-.148.043-.271-.212-.043-.54.142-.204.375-.372.458-.431.093-.066.466-.327.952-.471.268-.08.613-.136.602-.073-.014.084-.636.253-1.166.629-.634.449-.631.836-.802.886Z"/></g><g><path class="cls-9" d="m134.774,118.453c0-1.733-1.424-3.157-3.157-3.157-.248,0-.495.031-.743.093-.619-.619-1.455-1.022-2.384-1.022-1.3,0-2.445.774-3.033,1.919-.526-.526-1.269-.867-2.105-.867-1.672,0-3.034,1.362-3.034,3.033,0,.464.093.898.31,1.269-.805.557-1.331,1.486-1.331,2.538,0,1.486,1.084,2.724,2.477,2.972-.31.495-.464,1.052-.464,1.64,0,1.826,1.486,3.281,3.281,3.281.96,0,1.826-.402,2.415-1.083.495.96,1.517,1.61,2.693,1.61,1.702,0,3.095-1.362,3.095-3.095,0-.619-.186-1.207-.495-1.672,1.331-.278,2.353-1.517,2.353-2.941,0-.867-.34-1.64-.929-2.198.65-.557,1.052-1.393,1.052-2.322Zm-7.398,7.009c-.093-.031.296.101.204.039.031-.062.027-.186-.047-.221.062.093-.187.09-.156.182Z"/><path class="cls-10" d="m131.202,115.976c.096-.27,1.308-.28,2.178.33.542.38.777.879.858,1.056.091.199.439.992.132,1.881-.169.491-.565,1.087-.792,1.023-.303-.086.152-1.211-.363-2.343-.615-1.353-2.124-1.635-2.013-1.947Z"/><path class="cls-10" d="m125.836,129.095c.017.308-1.108.76-2.159.459-.655-.187-1.072-.607-1.217-.756-.163-.168-.801-.844-.867-1.855-.037-.559.096-1.306.333-1.323.316-.024.338,1.281,1.265,2.238,1.108,1.145,2.625.881,2.645,1.237Z"/><path class="cls-10" d="m123.328,120.1c.022-.153.306-.158.509.186.126.214.181.496.2.596.021.112.102.56.031,1.061-.04.277-.132.614-.185.577-.071-.048.035-.683-.085-1.322-.144-.763-.496-.923-.47-1.099Z"/><path class="cls-10" d="m130.738,124.825c.002.154-.276.205-.532-.102-.159-.191-.259-.461-.293-.556-.039-.107-.191-.536-.2-1.043-.005-.28.032-.627.09-.599.078.036.075.68.295,1.291.264.73.637.831.64,1.009Z"/><path class="cls-10" d="m127.498,120.267c-.148.043-.271-.212-.043-.54.142-.204.375-.372.458-.431.093-.066.466-.327.952-.471.268-.08.613-.136.602-.073-.014.084-.636.253-1.166.629-.634.449-.631.836-.802.886Z"/></g><g><path class="cls-9" d="m138.18,129.034c0-1.733-1.424-3.157-3.157-3.157-.248,0-.495.031-.743.093-.619-.619-1.455-1.022-2.384-1.022-1.3,0-2.445.774-3.033,1.919-.526-.526-1.269-.867-2.105-.867-1.672,0-3.034,1.362-3.034,3.033,0,.464.093.898.31,1.269-.805.557-1.331,1.486-1.331,2.538,0,1.486,1.084,2.724,2.477,2.972-.31.495-.464,1.052-.464,1.64,0,1.826,1.486,3.281,3.281,3.281.96,0,1.826-.402,2.415-1.083.495.96,1.517,1.61,2.693,1.61,1.702,0,3.095-1.362,3.095-3.095,0-.619-.186-1.207-.495-1.672,1.331-.278,2.353-1.517,2.353-2.941,0-.867-.34-1.64-.929-2.198.65-.557,1.052-1.393,1.052-2.322Zm-7.398,7.009c-.093-.031.296.101.204.039.031-.062.027-.186-.047-.221.062.093-.187.09-.156.182Z"/><path class="cls-10" d="m134.608,126.557c.096-.27,1.308-.28,2.178.33.542.38.777.879.858,1.056.091.199.439.992.132,1.881-.169.491-.565,1.087-.792,1.023-.303-.086.152-1.211-.363-2.343-.615-1.353-2.124-1.635-2.013-1.947Z"/><path class="cls-10" d="m129.242,139.676c.017.308-1.108.76-2.159.459-.655-.187-1.072-.607-1.217-.756-.163-.168-.801-.844-.867-1.855-.037-.559.096-1.306.333-1.323.316-.024.338,1.281,1.265,2.238,1.108,1.145,2.625.881,2.645,1.237Z"/><path class="cls-10" d="m126.734,130.681c.022-.153.306-.158.509.186.126.214.181.496.2.596.021.112.102.56.031,1.061-.04.277-.132.614-.185.577-.071-.048.035-.683-.085-1.322-.144-.763-.496-.923-.47-1.099Z"/><path class="cls-10" d="m134.144,135.406c.002.154-.276.205-.532-.102-.159-.191-.259-.461-.293-.556-.039-.107-.191-.536-.2-1.043-.005-.28.032-.627.09-.599.078.036.075.68.295,1.291.264.73.637.831.64,1.009Z"/><path class="cls-10" d="m130.904,130.848c-.148.043-.271-.212-.043-.54.142-.204.375-.372.458-.431.093-.066.466-.327.952-.471.268-.08.613-.136.602-.073-.014.084-.636.253-1.166.629-.634.449-.631.836-.802.886Z"/></g><path class="cls-1" d="m149.121,121.036c0,2.485-21.992,4.499-49.121,4.499s-49.121-2.014-49.121-4.499"/></g><g id="Aperol"><path class="cls-7" d="m113.67,89.96c-.03-.01-.06-.02-.09-.04.01-.02.03-.03.04-.05.02.03.04.06.05.09Z"/><path class="cls-7" d="m113.67,89.96c-.03-.01-.06-.02-.09-.04.01-.02.03-.03.04-.05.02.03.04.06.05.09Z"/><path class="cls-7" d="m113.67,89.96c-.03-.01-.06-.02-.09-.04.01-.02.03-.03.04-.05.02.03.04.06.05.09Z"/></g></svg>