<?xml version="1.0" encoding="UTF-8"?><svg id="Layer_1" xmlns="http://www.w3.org/2000/svg" viewBox="0 0 200 300"><defs><style>.cls-1{fill:#999;}.cls-2{fill:#8c6239;}.cls-3{fill:#a67c52;}.cls-4{fill:#c9e5e0;}.cls-5{fill:#c69c6d;}.cls-6{fill:#603813;}.cls-7{fill:#ffe37d;stroke:#fbb03b;}.cls-7,.cls-8,.cls-9{stroke-miterlimit:10;stroke-width:.5px;}.cls-8{fill:#42210b;}.cls-8,.cls-9{stroke:#000;}.cls-9{fill:#f6ffff;}</style></defs><path class="cls-9" d="m6.777,85.036c7.524,9.295,16.269,20.918,52.294,58.104,10.118,10.445,22.994,30.39,36.025,31.376,5.064.383,9.663-.95,13.945-4.648,25.566-22.08,38.349-34.862,38.349-34.863,32.538-37.187,37.187-42.997,48.808-51.132,22.56-15.792-209.175-23.242-189.42,1.162Z"/><ellipse class="cls-9" cx="95.676" cy="279.104" rx="46.483" ry="16.85"/><ellipse class="cls-7" cx="125.89" cy="103.63" rx="2.905" ry="3.486"/><ellipse class="cls-7" cx="75.34" cy="141.397" rx="3.486" ry="2.905"/><circle class="cls-7" cx="77.083" cy="134.425" r="1.743"/><circle class="cls-7" cx="107.297" cy="158.829" r="1.743"/><ellipse class="cls-4" cx="95.676" cy="278.523" rx="42.997" ry="15.107"/><path class="cls-9" d="m103.23,275.618h-15.107c-3.196,0,1.162-7.263,1.162-10.459v-89.481c0-3.196-13.655-11.621-10.459-11.621,3.047,1.649,8.719,4.198,16.269,4.648,8.677.517,15.354-2.005,18.593-3.486.213-.005.361.033.408.132.517,1.083-13.191,8.529-13.191,11.489v88.319c.387,3.486,1.937,6.973,2.324,10.459Z"/><rect class="cls-1" x="94.514" y="177.422" width="1.162" height="92.967" rx=".5" ry=".5"/><rect class="cls-1" x="92.064" y="172.425" width="1.162" height="87.156" rx=".5" ry=".5"/><ellipse class="cls-9" cx="99.744" cy="78.064" rx="96.453" ry="8.135"/><path d="m149.54,84.455l4.644-.201c3.483-.151,5.292-.767,6.247-2.356L201.155,14.142c.955-1.589-.057-3.966-2.248-5.283h0c-2.191-1.317-4.765-1.095-5.72.494l-40.724,67.757c-.955,1.589-4.008,7.042-2.923,7.346Z"/><path d="m131.027,117.306l4.575.824c2.192,1.316,2.273,2.421,3.589.229l15.566-25.925c4.593-7.811,3.635-7.568,1.348-7.98l-6.316.808c-2.287-.412-1.686.195-3.002,2.387l-15.566,25.925c-1.316,2.192-2.385,2.416-.194,3.732Z"/><path class="cls-2" d="m24.789,100.724c-1.61,2.25,3.266,8.922,20.918,25.254,15.759,14.58,25.566,26.104,25.566,26.104,5.641,6.629,9.361,11.713,17.431,13.984,9.651,2.716,18.66-.523,19.755-.932,7.219-2.699,12.638-7.421,17.431-13.278,7.272-8.885,14.11-13.588,22.08-22.08,19.128-20.383,27.618-28.097,25.566-30.214-1.921-1.982-10.372,1.438-24.404,2.176-13.306.7-14.956-2.553-27.89-1.865-13.098.697-12.998,4.115-25.566,4.661-12.586.547-13.537-2.844-27.89-2.797-12.811.042-13.448,2.751-25.566,2.797-17.538.066-16.113-5.654-17.431-3.811Z"/><path class="cls-5" d="m16.654,90.021c-4.648-1.428,0,0,2.324,5.713.729,1.791,1.89,3.029,3.093,3.88,1.889,1.338,3.444,3.295,4.66,5.519.142.259.28.468.382.599.695.895,3.608-1.367,7.947-1.428,7.035-.099,3.595,1.231,11.526,2.142,3.778.434,9.905,3.866,15.717,3.571,14.739-.749,13.267-3.947,22.915-4.285,15.108-.529,10.596,3.682,20.918,1.428,5.254-1.147,16.8,1.292,23.225,1.428,5.241.111,11.736-4.327,16.765-4.285,7.982.066,7.361,1.155,14.669,1.428,5.84.219,9.089-.437,10.418-1.428,1.029-.767,2.277-6.036,4.648-8.57,6.684-7.142,8.205-7.097,5.81-8.57-3.149-1.938-17.76,4.058-18.593,4.285-4.866,1.325-18.594-.337-22.191.714-6.226,1.82-9.684.723-18.482.714-10.444-.011-13.016,2.989-21.334,2.142-7.776-.791-8.949-1.823-17.015-2.142-4.579-.181-4.861,3.176-12.783,4.285-4.764.667-10.593-3.84-18.593-4.285-6.659-.37-13.685-.555-16.269-1.428-6.62-2.236-17.76-.815-19.755-1.428Z"/><circle class="cls-5" cx="60.814" cy="126.29" r="2.905"/><circle class="cls-5" cx="64.3" cy="121.642" r="1.743"/><circle class="cls-3" cx="116.594" cy="130.939" r="4.067"/><circle class="cls-3" cx="125.89" cy="134.425" r="1.743"/><g><path class="cls-6" d="m57.381,97.349c1.581-4.934,8.265-6.369,9.899-6.72,1.943-.417,5.861-1.258,7.048.536,1.093,1.651-.716,4.648-1.797,5.994-1.869,2.329-4.26,3.083-7.791,4.198-3.4,1.073-5.705,1.8-6.945.622-1.426-1.355-.508-4.338-.414-4.63Z"/><path class="cls-8" d="m74.328,91.165c-5.511,3.604-11.022,7.209-16.533,10.814"/></g><g><path class="cls-6" d="m110.459,102.086c-4.798,1.956-10.19-2.248-11.507-3.275-1.567-1.222-4.728-3.686-4.114-5.748.565-1.898,4.024-2.435,5.75-2.471,2.985-.062,5.099,1.287,8.22,3.279,3.006,1.918,5.043,3.218,4.935,4.925-.124,1.963-3,3.175-3.284,3.29Z"/><path class="cls-8" d="m94.838,93.062c6.302,1.911,12.604,3.822,18.905,5.733"/></g><g><path class="cls-6" d="m122.457,93.863c1.581-4.934,8.265-6.369,9.899-6.72,1.943-.417,5.861-1.258,7.048.536,1.093,1.651-.716,4.648-1.797,5.994-1.869,2.329-4.26,3.083-7.791,4.198-3.4,1.073-5.705,1.8-6.945.622-1.426-1.355-.508-4.338-.414-4.63Z"/><path class="cls-8" d="m139.405,87.679c-5.511,3.604-11.022,7.209-16.533,10.814"/></g></svg>