<?xml version="1.0" encoding="UTF-8"?><svg id="Layer_1" xmlns="http://www.w3.org/2000/svg" xmlns:xlink="http://www.w3.org/1999/xlink" viewBox="0 0 200 300"><defs><style>.cls-1,.cls-2{fill:none;}.cls-2{stroke:#f7931e;stroke-miterlimit:10;stroke-width:3px;}.cls-3{clip-path:url(#clippath);}.cls-4{fill:#f2f2f2;}.cls-5{fill:#e6e6e6;}.cls-6{fill:#f7931e;}.cls-7{fill:#fff;}.cls-8{fill:#ffe974;}.cls-9{fill:#f1ffe9;}.cls-10{fill:#fbb03b;}.cls-11{fill:#e2eae2;}.cls-12{clip-path:url(#clippath-1);}.cls-13{clip-path:url(#clippath-4);}.cls-14{clip-path:url(#clippath-3);}.cls-15{clip-path:url(#clippath-2);}.cls-16{clip-path:url(#clippath-7);}.cls-17{clip-path:url(#clippath-8);}.cls-18{clip-path:url(#clippath-6);}.cls-19{clip-path:url(#clippath-5);}.cls-20{clip-path:url(#clippath-9);}.cls-21{clip-path:url(#clippath-10);}.cls-22{clip-path:url(#clippath-11);}.cls-23{opacity:.8;}</style><clipPath id="clippath"><rect class="cls-1" x=".302" y="94.996" width="199.698" height="205.088"/></clipPath><clipPath id="clippath-1"><rect class="cls-1" x=".302" y="94.996" width="199.698" height="205.088"/></clipPath><clipPath id="clippath-2"><rect class="cls-1" x="147.648" y="100.194" width="15.803" height="32.463"/></clipPath><clipPath id="clippath-3"><rect class="cls-1" x="161.006" y="110.435" width="23.937" height="26.288"/></clipPath><clipPath id="clippath-4"><rect class="cls-1" x="163.158" y="134.116" width="28.126" height="15.417"/></clipPath><clipPath id="clippath-5"><rect class="cls-1" x="157.906" y="139.791" width="20.655" height="26.651"/></clipPath><clipPath id="clippath-6"><rect class="cls-1" x="128.189" y="115.922" width="27.932" height="22.561"/></clipPath><clipPath id="clippath-7"><rect class="cls-1" x="123.28" y="135.693" width="28.262" height="16.055"/></clipPath><clipPath id="clippath-8"><rect class="cls-1" x="141.346" y="140.791" width="16.396" height="27.958"/></clipPath><clipPath id="clippath-9"><rect class="cls-1" x=".302" y="94.996" width="199.698" height="205.088"/></clipPath><clipPath id="clippath-10"><rect class="cls-1" x=".302" y="94.996" width="199.698" height="205.088"/></clipPath><clipPath id="clippath-11"><rect class="cls-1" x=".302" y="94.996" width="199.698" height="205.088"/></clipPath></defs><g class="cls-3"><g id="Group_130"><g id="Group_123"><g class="cls-12"><g id="Group_122"><path id="Path_239" class="cls-5" d="m157.776,134.539c0,18.92-35.255,34.254-78.737,34.254S.302,153.457.302,134.539s35.255-34.254,78.737-34.254,78.737,15.336,78.737,34.254"/><path id="Path_240" class="cls-8" d="m157.694,96.759c-22.392,0-40.544,17.1-40.544,38.193,0,20.722,17.522,37.578,39.369,38.165h0c.391.011.781.028,1.175.028,22.392,0,40.544-17.1,40.544-38.193s-18.152-38.193-40.544-38.193"/><path id="Path_241" class="cls-2" d="m157.694,96.759c-22.392,0-40.544,17.1-40.544,38.193,0,20.722,17.522,37.578,39.369,38.165h0c.391.011.781.028,1.175.028,22.392,0,40.544-17.1,40.544-38.193s-18.152-38.193-40.544-38.193Z"/><path id="Path_242" class="cls-8" d="m133.015,109.099c4.195,2.052,8.175,4.518,11.88,7.361,4.188,2.997,8.579,6.244,10.647,11.143.468,1.352,1.009,2.677,1.621,3.971,1.323,2.375,3.651,3.878,5.885,5.279"/><g id="Group_103" class="cls-23"><g id="Group_102"><g class="cls-15"><g id="Group_101"><path id="Path_243" class="cls-10" d="m155.997,129.22c-4.152-5.564-6.434-12.3-6.519-19.241-.11-1.805.216-3.61.952-5.262.774-1.67,2.412-2.772,4.251-2.86,1.81.207,3.422,1.242,4.363,2.803,2.031,3.102,2.935,6.808,2.561,10.497-.387,3.659-1.28,7.246-2.654,10.659-.635,1.746-1.301,3.48-1.998,5.2"/><path id="Path_244" class="cls-6" d="m157.518,128.33c-2.856-3.837-4.819-8.264-5.743-12.958-.523-2.418-.682-4.901-.47-7.366.202-1.777,1.151-4.443,3.369-4.388,2.115.053,3.553,2.763,4.22,4.449.839,2.263,1.16,4.684.94,7.088-.373,5.309-2.614,10.508-4.583,15.395-.85,2.102,2.558,3.017,3.4.94,3.429-8.486,7.94-19.752,1.645-28.075-2.627-3.47-7.338-4.611-10.423-.985-2.971,3.494-2.35,8.972-1.629,13.162.92,5.26,3.052,10.233,6.228,14.525,1.333,1.806,4.394.049,3.044-1.779"/></g></g></g></g><g id="Group_106" class="cls-23"><g id="Group_105"><g class="cls-14"><g id="Group_104"><path id="Path_245" class="cls-10" d="m163.258,132.968c.727-6.845,3.849-13.213,8.814-17.98,1.22-1.283,2.769-2.207,4.477-2.669,1.914-.416,3.906.198,5.253,1.621,1.198,1.536,1.67,3.516,1.293,5.427-.618,3.604-2.612,6.827-5.561,8.989-2.932,2.098-6.175,3.721-9.612,4.811-1.724.627-3.465,1.214-5.224,1.763"/><path id="Path_246" class="cls-6" d="m165.021,132.968c.45-3.725,1.633-7.324,3.479-10.591.88-1.564,1.922-3.031,3.107-4.379,1.147-1.446,2.563-2.656,4.171-3.563,1.343-.704,2.964-.616,4.222.229,1.207,1.11,1.732,2.779,1.376,4.38-.645,3.566-2.771,6.691-5.85,8.602-3.98,2.69-8.753,4.148-13.294,5.586-2.155.683-1.234,4.088.94,3.4,8.764-2.776,20.364-6.601,21.69-17.265.366-2.262-.207-4.575-1.588-6.404-1.442-1.696-3.59-2.627-5.814-2.521-4.577.206-8.152,4.434-10.585,7.909-2.965,4.357-4.812,9.376-5.379,14.616.005.971.791,1.758,1.763,1.763.964-.023,1.74-.799,1.763-1.763"/></g></g></g></g><g id="Group_109" class="cls-23"><g id="Group_108"><g class="cls-13"><g id="Group_107"><path id="Path_247" class="cls-10" d="m166.707,138.243c5.466-2.513,11.639-3.034,17.449-1.474,1.513.332,2.908,1.07,4.034,2.133,1.18,1.225,1.629,2.98,1.183,4.622-.606,1.578-1.872,2.813-3.464,3.38-2.984,1.148-6.296,1.106-9.25-.118-2.901-1.24-5.592-2.923-7.976-4.99-1.254-1.003-2.486-2.033-3.698-3.09"/><path id="Path_248" class="cls-6" d="m167.593,139.771c3.911-1.729,8.202-2.417,12.457-1.998,1.986.123,3.928.632,5.718,1.5,1.4.779,2.55,2.407,1.805,4.048s-2.98,2.369-4.614,2.591c-2.115.232-4.253-.099-6.199-.96-3.951-1.656-7.332-4.709-10.53-7.482-1.708-1.481-4.211,1.002-2.494,2.493,6.16,5.344,14.36,12.316,23.061,8.474,3.654-1.612,5.702-5.548,3.712-9.284-1.933-3.635-6.736-4.53-10.459-4.902-4.879-.413-9.783.443-14.234,2.484-.834.496-1.115,1.57-.632,2.411.505.822,1.568,1.1,2.411.632"/></g></g></g></g><g id="Group_112" class="cls-23"><g id="Group_111"><g class="cls-19"><g id="Group_110"><path id="Path_249" class="cls-10" d="m161.206,142.582c5.841,2.735,10.7,7.2,13.919,12.788.912,1.417,1.482,3.026,1.664,4.701.174,1.669-.607,3.294-2.019,4.201-1.536.628-3.278.495-4.701-.358-3.03-1.649-5.427-4.256-6.816-7.414-1.372-3.141-2.316-6.452-2.807-9.844-.302-1.7-.574-3.404-.814-5.113"/><path id="Path_250" class="cls-6" d="m160.317,144.105c3.089,1.438,5.91,3.391,8.344,5.776,2.557,2.349,4.583,5.217,5.941,8.413.442,1.209.764,2.891-.152,3.996-1.041,1.252-2.961.44-4.113-.219-2.854-1.809-5.009-4.535-6.111-7.73-1.46-4.297-2.431-8.745-2.894-13.26-.264-.935-1.231-1.484-2.169-1.232-.922.279-1.463,1.233-1.23,2.168,1.186,8.337,2.741,19.254,11.245,23.426,1.974,1.166,4.391,1.3,6.481.358,1.677-1.032,2.745-2.817,2.862-4.783.428-4.151-2.759-8.357-5.272-11.358-3.052-3.639-6.858-6.572-11.155-8.595-2.041-.959-3.833,2.079-1.779,3.044"/></g></g></g></g><g id="Group_115" class="cls-23"><g id="Group_114"><g class="cls-18"><g id="Group_113"><path id="Path_251" class="cls-10" d="m152.415,136.235c-6.92-.557-13.486-3.293-18.754-7.815-1.428-1.109-2.568-2.546-3.322-4.19-.743-1.685-.488-3.643.66-5.081,1.351-1.222,3.193-1.748,4.986-1.424,3.669.524,7.046,2.291,9.568,5.006,2.493,2.705,4.598,5.744,6.253,9.03.892,1.629,1.754,3.274,2.585,4.936"/><path id="Path_252" class="cls-6" d="m152.415,134.472c-3.793-.317-7.494-1.333-10.916-2.998-3.141-1.538-6.783-3.688-8.814-6.619-.823-1.182-1.468-2.957-.564-4.286s2.958-1.248,4.338-1.009c3.566.79,6.748,2.793,9.003,5.667,3.115,3.624,5.288,8.118,7.415,12.363,1.017,2.028,4.059.246,3.044-1.779-4.105-8.184-9.354-18.558-19.554-19.804-2.258-.409-4.581.192-6.357,1.645-1.492,1.505-2.135,3.656-1.712,5.733.74,4.447,5.391,7.659,8.982,9.808,4.614,2.735,9.793,4.379,15.14,4.805,2.26.19,2.247-3.336,0-3.526"/></g></g></g></g><g id="Group_118" class="cls-23"><g id="Group_117"><g class="cls-16"><g id="Group_116"><path id="Path_253" class="cls-10" d="m148.411,141.644c-4.183,4.499-9.809,7.391-15.901,8.176-1.558.274-3.161.119-4.637-.449-1.592-.699-2.698-2.184-2.913-3.909-.042-1.728.673-3.387,1.958-4.543,2.372-2.245,5.516-3.492,8.782-3.483,3.222.045,6.417.59,9.471,1.617,1.572.462,3.136.957,4.694,1.484"/><path id="Path_254" class="cls-6" d="m147.164,140.397c-2.811,2.997-6.307,5.266-10.189,6.613-2.662.89-9.421,2.82-10.23-1.46-.363-1.921,1.43-3.651,2.893-4.583,1.594-1.002,3.41-1.595,5.288-1.725,4.913-.371,9.879,1.457,14.462,3,2.155.725,3.079-2.679.94-3.4-7.735-2.604-18.671-6.08-25.05,1.254-2.803,3.224-2.796,7.857.94,10.37,3.396,2.286,8.495,1.078,12.068-.18,4.319-1.537,8.215-4.07,11.375-7.392,1.571-1.637-.919-4.134-2.493-2.493"/></g></g></g></g><g id="Group_121" class="cls-23"><g id="Group_120"><g class="cls-17"><g id="Group_119"><path id="Path_255" class="cls-10" d="m154.766,144.312c1.86,5.856,1.61,12.179-.705,17.871-.528,1.491-1.452,2.811-2.672,3.817-1.392,1.042-3.229,1.274-4.837.612-1.525-.814-2.618-2.253-2.992-3.94-.786-3.17-.323-6.52,1.293-9.358,1.624-2.783,3.671-5.296,6.067-7.449,1.175-1.141,2.376-2.26,3.602-3.356"/><path id="Path_256" class="cls-6" d="m153.067,144.779c1.357,4.335,1.519,8.955.47,13.375-.383,1.914-1.122,3.738-2.179,5.379-1.002,1.378-2.966,2.341-4.53,1.217-1.502-1.079-1.906-3.313-1.908-5.03.036-2.069.603-4.095,1.645-5.883,2.215-3.959,5.859-7.09,9.195-10.084,1.692-1.518-.809-4.005-2.493-2.493-6.079,5.458-14.122,12.893-11.365,22.036,1.163,3.858,4.829,6.563,8.874,5,3.822-1.476,5.406-5.933,6.257-9.612,1.103-4.913.907-10.029-.568-14.844-.651-2.167-4.054-1.243-3.4.94"/></g></g></g></g></g></g></g><g id="Group_125"><g class="cls-20"><g id="Group_124"><path id="Path_257" class="cls-7" d="m26.194,273.902c2.063-1.386,3.961-3.002,5.658-4.818.249-.235,1.019-.676,1.132-.978-.025.066-1.079.752-.432.353.282-.173.546-.378.823-.561.907-.588,1.85-1.131,2.806-1.645,4.224-2.252,8.593-4.254,12.892-6.359l6.676-3.271c.496-.242.988-.489,1.485-.726.323-.111.634-.256.927-.432-.074.099-1.22.391-.499.243.251-.052,1.812-.492.804-.267-.899.201-.125.031.118.06,1.209.142-.244-.143-.262-.085.06-.197,13.419,3.246,14.631,3.541,5.202,1.423,10.57,2.149,15.962,2.158,4.85-.129,9.653-.78,14.515-.571,1.148.049,2.294.132,3.439.248.267.026,1.908.241.906.089-.966-.147-.061-.009.118.019.353.054.705.107,1.048.165,2.268.379,4.513.885,6.724,1.515,1.105.313,2.202.66,3.291,1.041.502.174,1.001.355,1.496.542.387.146,1.48.362,1.728.683-.06-.078-1.508-.672-.222-.085l.725.329c.456.21.911.427,1.36.655s.883.462,1.31.718c.213.127.42.264.631.394.892.539-.027-.212-.235-.22.127,0,.693.644.723.67.689.62-.023.083-.181-.329.263.484.571.942.92,1.368.855,1.375,1.826,2.675,2.903,3.885,2.15,2.362,4.944,4.044,8.037,4.841,4.335.94,9.064-.375,11.445-4.366,2.269-3.676,1.735-8.426-1.293-11.507-2.659-2.561-7.362-2.843-9.971,0-2.69,2.779-2.69,7.192,0,9.971-1.229-1.278-1.695-3.108-1.227-4.818.161-.35.322-.703.481-1.058-.368.613-.203.407.495-.618l2.127-1.263c1.128-.074,1.299-.106.511-.094l.946.109c-.731-.235-.619-.161.336.223-.157.08-1.068-.609-1.22-.692-1.333-.738.99,1.079-.04-.042-.096-.105-1.015-.876-.967-1.006.612.822.697.923.256.303-.176-.26-.353-.523-.518-.787-1.465-2.39-3.366-4.484-5.604-6.173-1.812-1.246-3.759-2.283-5.804-3.091-8.779-3.843-18.263-5.809-27.846-5.772-4.738.046-9.454.806-14.196.612-.952.001-1.902-.077-2.84-.235,1.789.394-.062-.027-.377-.081-.562-.096-1.122-.203-1.681-.315-2.44-.492-4.852-1.111-7.268-1.705l-6.838-1.681c-2.753-.84-5.591-1.372-8.461-1.588-5.206-.092-10.045,3.091-14.579,5.312-4.685,2.295-9.413,4.521-14.056,6.901-2.468,1.254-4.795,2.768-6.942,4.516-.862.728-1.686,1.5-2.468,2.314-.331.334-.689.65-1.013.991-.575.495-.461.424.342-.213-.254.181-.52.346-.794.495-3.363,1.966-4.495,6.285-2.53,9.648,1.966,3.363,6.285,4.495,9.648,2.53"/><path id="Path_258" class="cls-7" d="m22.043,274.432c3.894,0,7.051-3.157,7.051-7.051s-3.157-7.051-7.051-7.051-7.051,3.157-7.051,7.051c.043,3.876,3.175,7.008,7.051,7.051"/><path id="Path_259" class="cls-4" d="m.807,134.365c-1.058.195,1.575,17.457,3.259,35.843.985,10.754,1.737,16.156,1.698,18.685-.003,1.612.108,3.222.331,4.818.269,2.417.526,4.622,1.175,4.701.555.067.843-1.491,2.35-3.526.871-1.082,1.856-2.067,2.938-2.938,2.37-1.977,8.513-4.765,17.04-6.463,4.155-.88,4.922-.867,14.102-2.35,13.397-2.164,13.397-2.455,18.215-2.938,5.665-.501,11.354-.697,17.04-.588,8.15-.018,14.323.353,18.215.588,4.835.295,8.888.561,14.102,1.175,3.729.44,7.005.955,9.98,1.518,5.582,1.058,9.542,2.104,13.524,3.182,4.455,1.208,9.849,2.812,13.515,5.288,1.709.985,3.128,2.404,4.113,4.113.676,1.293.823,2.375,1.175,2.35.478-.033.801-1.697,1.175-5.876.55-6.15.611-11.047.628-12.259.065-4.883.107-1.914.269-10.641.498-26.691-.438-25.258.266-29.262.118-.664.523-2.874.013-3.068-.568-.216-1.858,2.226-3.526,4.701-2.058,2.979-4.422,5.736-7.051,8.226-3.161,3.181-6.715,5.946-10.577,8.226-4.627,2.679-8.568,3.745-16.453,5.876-5.399,1.54-10.896,2.718-16.453,3.526-5.476.77-10.702.905-21.153,1.175-9.228.235-13.841.358-17.628,0-6.346-.709-12.631-1.887-18.803-3.526-2.731-.648-7.303-1.789-12.927-3.526-6.532-2.017-9.797-3.026-12.927-4.701-4.562-2.23-8.575-5.44-11.752-9.401-4.999-6.566-5.232-13.044-5.876-12.927"/></g></g></g><g id="Group_127"><g class="cls-21"><g id="Group_126"><path id="Path_260" class="cls-9" d="m154.168,199c0,10.709-32.884,19.39-73.449,19.39S7.271,209.709,7.271,199s32.884-19.39,73.449-19.39,73.449,8.681,73.449,19.39"/><path id="Path_261" class="cls-11" d="m7.858,199c-.992.235.718,9.671,2.35,23.504.537,4.555,1.559,13.22,2.35,23.504.644,8.379.487,9.393,1.175,12.927.678,3.091,1.072,6.238,1.175,9.401.061,2.233-.089,2.407,0,3.526s.578,5.201,5.876,10.577c3.291,3.334,7.474,6.205,15.277,9.401,6.445,2.626,13.138,4.595,19.978,5.876,9.69,1.765,19.532,2.552,29.379,2.35,10.279-.124,20.518-1.305,30.555-3.526,6.094-1.231,12.014-3.205,17.628-5.876,5.233-2.753,9.994-6.324,14.102-10.577,1.694-1.596,2.914-3.63,3.526-5.876.36-1.528.146-2.201,0-5.876-.012-.291-.182-4.747,0-8.226.195-3.744.716-4.782,1.175-8.226.804-6.026-.33-6.285,0-14.102.267-6.32,1.013-6.259,1.175-12.927.139-5.697-.41-5.523,0-9.401.353-3.33,1.175-7.327,1.175-10.577-.111-1.173-.111-2.353,0-3.526.236-.766.236-1.585,0-2.35-.293-.705-.915-1.293-1.175-1.175-.311.139.136,1.186,0,2.35-.307,1.431-1.147,2.692-2.35,3.526-7.816,6.581-19.978,9.401-19.978,9.401-6.972,1.61-14.036,2.788-21.153,3.526-7.532.796-13.189.968-19.978,1.175-7.237.221-12.068.368-18.803,0-3.848-.21-2.664-.28-14.102-1.175-7.445-.588-9.133-.646-12.927-1.175-3.976-.451-7.908-1.237-11.752-2.35-2.959-.893-3.228-1.223-7.051-2.35-5.682-1.675-5.929-1.192-8.226-2.35-2.751-1.421-5.157-3.427-7.051-5.876-1.676-2.221-1.968-3.615-2.35-3.526"/></g></g></g><rect id="Rectangle_154" class="cls-4" x="75.431" y="237.193" width="27.029" height="29.379" transform="translate(-177.602 234.311) rotate(-66.779)"/><rect id="Rectangle_155" class="cls-7" x="40.763" y="227.204" width="35.255" height="32.905" transform="translate(-70.596 28.854) rotate(-17.508)"/><g id="Group_129"><g class="cls-22"><g id="Group_128"><path id="Path_262" class="cls-7" d="m115.387,234.843c0,1.947-1.578,3.526-3.526,3.526s-3.526-1.578-3.526-3.526,1.578-3.526,3.526-3.526,3.526,1.578,3.526,3.526"/><path id="Path_263" class="cls-7" d="m128.314,226.617c0,2.596-2.105,4.701-4.701,4.701s-4.701-2.105-4.701-4.701,2.105-4.701,4.701-4.701,4.701,2.105,4.701,4.701"/><path id="Path_264" class="cls-7" d="m129.489,251.295c0,1.947-1.578,3.526-3.526,3.526s-3.526-1.578-3.526-3.526,1.578-3.526,3.526-3.526,3.526,1.578,3.526,3.526"/><path id="Path_265" class="cls-7" d="m135.365,267.16c0,1.623-1.315,2.938-2.938,2.938s-2.938-1.315-2.938-2.938,1.315-2.938,2.938-2.938,2.938,1.315,2.938,2.938"/></g></g></g></g></g></svg>