<?xml version="1.0" encoding="UTF-8"?><svg id="Layer_1" xmlns="http://www.w3.org/2000/svg" viewBox="0 0 74 73.626"><defs><style>.cls-1{fill:#ff4100;}</style></defs><path class="cls-1" d="m66.017,70.962L4.137,10.255c-2.219-2.177-2.212-5.696.016-7.859h0c2.228-2.164,5.833-2.152,8.052.025l61.879,60.707c2.219,2.177,2.212,5.696-.016,7.859h0c-2.228,2.164-5.833,2.152-8.052-.025Z"/><path class="cls-1" d="m74.132,9.958L12.138,71.195c-2.223,2.196-5.827,2.237-8.049.091h0c-2.222-2.146-2.221-5.666.002-7.862L66.084,2.187c2.223-2.196,5.827-2.237,8.049-.091h0c2.222,2.146,2.221,5.666-.002,7.862Z"/></svg>