<?xml version="1.0" encoding="UTF-8"?><svg id="Layer_1" xmlns="http://www.w3.org/2000/svg" viewBox="0 0 257 145"><defs><style>.cls-1{fill:#f7b59d;}.cls-2{fill:#f8f6b1;}.cls-3{fill:#a1b795;}.cls-4{fill:none;stroke:#f7b59d;stroke-miterlimit:10;}.cls-5{isolation:isolate;}</style></defs><g id="Group_37"><path id="Path_11" class="cls-2" d="m246.584,68.063c0,25.148-19.944,45.534-44.545,45.534s-44.546-20.386-44.546-45.534,19.944-45.534,44.546-45.534,44.545,20.386,44.545,45.534"/><g id="Tipsy" class="cls-5"><g class="cls-5"><path class="cls-3" d="m67.457,15.466v9.223h-26.335v68.192h-10.693V24.689H4.094v-9.223h63.362Z"/><path class="cls-3" d="m71.925,15.466h9.736v10.751h-9.736v-10.751Zm0,21.237h9.736v56.178h-9.736v-56.178Z"/><path class="cls-3" d="m95.333,36.704h9.363v7.483c1.92-2.563,4.019-4.549,6.294-5.955,3.235-2.107,7.04-3.162,11.415-3.162,6.472,0,11.966,2.451,16.481,7.352,4.516,4.901,6.774,11.902,6.774,21.001,0,12.297-3.259,21.08-9.774,26.35-4.13,3.338-8.938,5.007-14.421,5.007-4.308,0-7.922-.932-10.842-2.793-1.709-1.055-3.614-2.863-5.715-5.429v28.827h-9.576V36.704Zm36.028,44.241c2.972-3.706,4.458-9.249,4.458-16.626,0-4.497-.659-8.361-1.976-11.595-2.491-6.218-7.047-9.327-13.666-9.327-6.655,0-11.21,3.285-13.666,9.854-1.316,3.514-1.975,7.976-1.975,13.386,0,4.356.658,8.062,1.975,11.119,2.49,5.833,7.046,8.748,13.666,8.748,4.484,0,8.212-1.853,11.184-5.56Z"/><path class="cls-3" d="m162.42,75.174c.289,3.162,1.104,5.586,2.443,7.272,2.461,3.057,6.733,4.585,12.814,4.585,3.62,0,6.805-.764,9.557-2.292,2.751-1.528,4.127-3.891,4.127-7.089,0-2.424-1.1-4.269-3.298-5.533-1.407-.772-4.182-1.668-8.326-2.688l-7.731-1.897c-4.938-1.193-8.579-2.529-10.922-4.005-4.181-2.564-6.271-6.113-6.271-10.646,0-5.34,1.968-9.661,5.903-12.964,3.936-3.302,9.229-4.953,15.878-4.953,8.698,0,14.971,2.494,18.816,7.482,2.408,3.162,3.576,6.57,3.506,10.224h-9.044c-.183-2.131-.963-4.069-2.342-5.817-2.251-2.479-6.154-3.721-11.709-3.721-3.703,0-6.508.683-8.414,2.048s-2.859,3.169-2.859,5.408c0,2.45,1.252,4.411,3.758,5.882,1.444.875,3.577,1.646,6.396,2.313l6.451,1.528c7.01,1.652,11.707,3.25,14.093,4.796,3.725,2.424,5.586,6.236,5.586,11.436,0,5.024-1.948,9.363-5.845,13.017-3.896,3.653-9.829,5.481-17.801,5.481-8.582,0-14.66-1.906-18.232-5.719-3.573-3.812-5.485-8.527-5.736-14.149h9.203Z"/><path class="cls-3" d="m246.824,36.441h10.587c-1.349,3.62-4.345,11.88-8.991,24.779-3.476,9.702-6.384,17.61-8.725,23.726-5.528,14.394-9.426,23.171-11.693,26.331-2.268,3.159-6.166,4.739-11.693,4.739-1.347,0-2.384-.053-3.11-.158s-1.621-.299-2.684-.579v-8.643c1.664.456,2.868.737,3.611.843s1.398.158,1.966.158c1.77,0,3.07-.29,3.902-.868.832-.579,1.532-1.288,2.099-2.13.177-.281.814-1.719,1.911-4.312,1.098-2.596,1.895-4.523,2.392-5.785l-21.068-58.101h10.854l15.269,45.974,15.375-45.974Z"/></g></g><path id="Path_12" class="cls-1" d="m118.515,36.351c-.115,5.272-4.483,9.452-9.755,9.337-5.272-.115-9.452-4.483-9.337-9.755.114-5.191,4.354-9.339,9.546-9.339,5.33.059,9.603,4.427,9.545,9.757"/><path id="Path_13" class="cls-4" d="m118.515,36.351c-.115,5.272-4.483,9.452-9.755,9.337-5.272-.115-9.452-4.483-9.337-9.755.114-5.191,4.354-9.339,9.546-9.339,5.33.059,9.603,4.427,9.545,9.757Z"/></g></svg>