<?xml version="1.0" encoding="UTF-8"?><svg id="Layer_1" xmlns="http://www.w3.org/2000/svg" viewBox="0 0 200 300"><defs><style>.cls-1,.cls-2{fill:#000284;}.cls-3{fill:#e6e0a4;}.cls-4{fill:#8d3102;}.cls-5{fill:#be6d2c;}.cls-6{fill:#c5c78a;}.cls-7{fill:#74835b;}.cls-8{fill:#61711e;}.cls-9{fill:#b48357;}.cls-9,.cls-10,.cls-11,.cls-12,.cls-13,.cls-14,.cls-15,.cls-16{stroke-miterlimit:10;}.cls-9,.cls-10,.cls-16{stroke-width:.5px;}.cls-9,.cls-14,.cls-15{stroke:#754c24;}.cls-10{fill:#f6ffff;}.cls-10,.cls-16{stroke:#000;}.cls-11{stroke:#006837;}.cls-11,.cls-12,.cls-13,.cls-16{fill:none;}.cls-12{stroke:#6b8855;}.cls-13{stroke:#838246;}.cls-14{fill:#ad6d2a;}.cls-14,.cls-15{stroke-width:.75px;}.cls-15{fill:#af6737;}.cls-2{opacity:.6;}</style></defs><polygon class="cls-10" points="155.099 291.074 70.226 291.074 49.008 81.249 178.675 82.428 155.099 291.074"/><ellipse class="cls-10" cx="114.431" cy="80.66" rx="65.423" ry="7.662"/><ellipse class="cls-10" cx="112.662" cy="291.663" rx="42.436" ry="7.662"/><path class="cls-5" d="m60.206,170.248c.534,9.529,1.603,16.885,2.947,30.059,2.947,28.88,2.947,26.523,4.715,48.33,1.573,19.395,1.768,26.523,2.947,33.595.822,4.933,6.624,3.855,11.788,4.715,7.073,1.179,15.308,3.311,39.489,1.768,25.858-1.649,30.547-.875,31.238-2.947,2.358-7.073,2.28-11.747,3.536-28.291,1.135-14.935,4.627-30.421,5.305-45.383,1.084-23.95,3.395-36.514,4.126-43.026,3.598-32.047,11.176-58.773,5.889-61.38-.484-.239-.877-.17-2.352.083-10.38,1.784-16.659,3.932-20.039,4.715-8.119,1.881-7.433-2.277-22.397-2.358-8.58-.046-9.066,1.32-18.861,1.179-9.114-.131-9.069-1.319-16.503-1.179-11.914.225-11.991,3.276-20.039,2.358-9.11-1.039-16.116-5.759-17.929-3.352-.414.55-.375,1.224-.342,1.584.346,3.81.624,6.1,2.358,22.397,2.947,27.702,3.907,33.223,4.126,37.132Z"/><path class="cls-16" d="m70.226,286.359l24.755,2.358c4.762.298,28.242.272,33.006,0l27.112-2.358"/><path class="cls-1" d="m149.029,86.554l4.711-.204c3.533-.153,5.368-.778,6.336-2.39L201.386,15.231c.969-1.611-.058-4.023-2.28-5.359h0c-2.223-1.336-4.834-1.111-5.802.501l-41.31,68.73c-.969,1.611-4.065,7.143-2.965,7.451Z"/><path class="cls-1" d="m133.556,113.588l4.482,1.1c2.223,1.335,2.393,2.311,3.482.497l12.883-21.456c3.788-6.473,2.884-6.338.643-6.888l-6.028.188c-2.241-.55-1.611.032-2.7,1.846l-12.883,21.456c-1.089,1.814-2.102,1.923.121,3.258Z"/><path class="cls-3" d="m91.531,80.66c3.091-3.463,1.465-9.703,0-15.324-.685-2.627-2.513-8.622-8.252-16.503-5.074-6.969-9.82-13.488-18.861-17.682-12.161-5.641-23.65-3.158-27.112-2.358-3.291.761-13.826,3.352-22.397,12.967-9.584,10.752-10.364,23.163-10.609,28.291-.187,3.903-.558,14.635,5.894,25.933,7.154,12.528,17.97,17.476,23.576,20.039,3.618,1.655,12.064,5.518,15.324,2.358.942-.914,1.073-2.048,1.179-7.073.246-11.738,0-16.503,0-16.503-.581-11.251-.926-11.88,0-12.967,2.379-2.792,6.957-1.344,21.218,0,16.011,1.509,18.568.47,20.039-1.179Z"/><path class="cls-7" d="m90.58,77.162c1.217-8.523,1.826-12.784,1.211-15.844-1.89-9.398-9.245-15.523-16.947-21.938-8.524-7.099-13.951-11.618-23-13.407-14.574-2.881-26.046,3.793-27.842,4.875-10.602,6.388-14.811,15.894-16.947,20.719-1.898,4.287-6.645,15.429-3.632,29.251,2.22,10.182,7.533,16.696,10.895,20.719,10.992,13.157,28.312,22.195,32.684,18.282,1.365-1.222,2.017-4.198,1.211-4.875-.708-.594-2.442.666-3.632,1.219-6.709,3.118-17.694-6.255-21.79-9.75-4.886-4.169-9.717-8.292-13.316-15.844-1.451-3.045-5.229-11.953-3.632-23.157,1.018-7.137,3.765-12.039,7.263-18.282,3.758-6.706,5.703-10.178,9.684-13.407,9.591-7.78,21.95-6.812,26.632-6.094,8.005,1.228,13.178,4.734,20.579,9.75,9.111,6.175,14.495,9.824,16.947,17.063.198.584,4.228,12.868,0,19.5-.47.738-1.853,2.677-1.211,3.656.546.832,2.494.876,3.632,0,.95-.731,1.141-1.954,1.211-2.438Z"/><path class="cls-12" d="m11.393,77.398c.258,1.128.521,2.834.311,4.889-.29,2.833-1.266,4.247-.533,5.304.738,1.064,2.694,1.026,4.573.774,5.96-.797,10.055-3.594,14.74-6.247,2.581-1.462,6.273-3.407,10.966-5.398"/><path class="cls-12" d="m22.735,96.213c.655.796,1.541,2.064,2.167,3.851.863,2.463.597,4.103,1.623,4.607,1.032.507,2.653-.489,4.126-1.621,4.674-3.592,7.007-7.903,9.89-12.386,1.588-2.47,3.917-5.884,7.065-9.829"/><path class="cls-11" d="m9.788,61.059c.903-1.192,2.131-3.041,3.041-5.45,1.254-3.322.982-5.271,2.359-6.216,1.386-.952,3.478-.226,5.369.716,5.999,2.986,8.875,7.595,12.469,12.246,1.98,2.563,4.892,6.062,8.861,9.964"/><path class="cls-12" d="m64.332,44.707c-.924,2.952-2.08,6.119-3.536,9.43-2.917,6.633-6.283,12.124-9.43,16.503"/><path class="cls-13" d="m77.299,57.674c.721.904,1.796,2.493,2.358,4.715.439,1.737.895,3.546,0,4.715-1.1,1.437-3.263.63-7.073,1.179-1.63.235-3.444.942-7.073,2.358-2.754,1.074-6.388,2.606-10.609,4.715"/><path class="cls-12" d="m37.22,35.277c.459,8.32.309,10.575,0,10.609-.571.064-.6-7.575-4.715-9.43-1.819-.82-4.562-.567-5.894,1.179-1.363,1.787-1.049,4.879,1.179,7.073"/><path class="cls-12" d="m43.114,37.634c2.722-3.243,4.64-3.715,5.894-3.536,1.636.233,2.361,1.604,4.715,3.536,2.243,1.841,4.411,2.916,5.894,3.536"/><path class="cls-12" d="m16.379,54.237c5.671.272,7.185.555,7.182.794-.005.442-5.179-.108-6.783,2.902-.709,1.33-.769,3.448.3,4.597,1.095,1.177,3.214,1.168,4.888-.373"/><path class="cls-12" d="m49.581,109.357c-2.985,3.003-4.935,3.312-6.17,3.029-1.611-.369-2.218-1.797-4.402-3.92-2.081-2.023-4.151-3.276-5.576-4.019"/><path class="cls-12" d="m44.808,41.417c.748,3.001,1.41,6.307,1.89,9.893.962,7.182.947,13.622.54,19"/><path class="cls-13" d="m25.113,49.066c.848-.787,2.352-1.978,4.526-2.703,1.7-.567,3.469-1.158,4.702-.352,1.515.99.872,3.207,1.704,6.965.356,1.608,1.197,3.364,2.879,6.877,1.277,2.666,3.076,6.175,5.494,10.227"/><path class="cls-13" d="m82.158,54.088c-.376-1.251-1.152-3.224-2.798-4.888-1.286-1.301-2.626-2.655-4.199-2.145-1.934.627-2.5,3.51-5.253,7.694-1.178,1.79-2.886,3.579-6.303,7.158-2.594,2.716-6.117,6.248-10.504,10.201"/><path class="cls-13" d="m12.213,75.484c-.106-1.152-.13-3.07.623-5.235.589-1.692,1.201-3.454,2.592-3.939,1.709-.596,3.072,1.267,6.556,2.903,1.491.7,3.395,1.106,7.204,1.918,2.891.617,6.768,1.334,11.454,1.893"/><path class="cls-13" d="m20.72,102.755c-.87-.762-2.209-2.136-3.155-4.223-.739-1.632-1.509-3.331-.834-4.641.829-1.609,3.1-1.198,6.752-2.412,1.563-.52,3.223-1.537,6.544-3.572,2.521-1.545,5.826-3.695,9.607-6.518"/><path class="cls-12" d="m16.995,73.891c5.671.272,7.185.555,7.182.794-.005.442-5.179-.108-6.783,2.902-.709,1.33-.769,3.448.3,4.597,1.095,1.177,3.214,1.168,4.888-.373"/><path class="cls-12" d="m79.035,69.416c-4.756,3.102-5.919,4.111-5.795,4.316.228.379,4.414-2.711,7.319-.926,1.284.789,2.407,2.586,2.066,4.118-.349,1.569-2.183,2.633-4.406,2.15"/><path class="cls-12" d="m44.408,105.598c3.12-4.744,3.782-6.134,3.587-6.273-.36-.256-2.962,4.25-6.339,3.774-1.493-.21-3.24-1.408-3.54-2.949-.307-1.578.949-3.286,3.179-3.732"/><path class="cls-15" d="m115.02,206.201c-.178-3.524,3.449-6.348,5.894-8.252,1.695-1.32,5.21-3.986,10.609-4.715,2.408-.325,8.921-1.205,11.788,2.358,1.508,1.874.529,3.142,1.179,9.43.628,6.081,1.71,6.516,2.358,12.967.48,4.782.72,7.173,0,9.43-1.872,5.87-7.354,8.844-10.609,10.609-2.886,1.565-5.217,2.83-8.252,2.358-3.851-.599-6.188-3.585-7.073-4.715-3.207-4.097-3.412-8.885-3.536-11.788-.282-6.591,1.892-8.7,0-12.967-1.09-2.459-2.259-2.766-2.358-4.715Z"/><path class="cls-9" d="m142.132,121.328c-.519.081-3.144.521-5.894,2.358-4.447,2.97-5.979,7.427-7.073,10.609-1.225,3.565-1.971,5.736-1.179,8.252,1.122,3.562,4.513,5.232,8.252,7.073,4.013,1.976,11.151,5.492,16.503,2.358,1.293-.757,2.451-2.48,4.715-5.894,4.373-6.595,6.56-9.893,5.894-12.967-.585-2.7-2.747-4.158-7.073-7.073-3.751-2.528-8.34-5.621-14.145-4.715Z"/><path class="cls-4" d="m165.119,145.493c-.191,2.723-1.221,5.512-1.179,5.894.772,6.998-4.769,23.853-6.483,35.606-1.025,7.028-3.283,22-9.43,39.085-5.811,16.152-10.674,29.669-21.218,39.085,0,0-14.084,12.578-35.785,10.848-.946-.075-1.937-.188-1.937-.188-4.055-.461-8.479-.965-13.227-3.043-3.736-1.635-5.172-3.151-5.634-2.287-.674,1.26-1.37,8.848.589,11.74,5.017,7.406,14.887,5.529,19.45,6.026,13.143,1.434,19.714,2.151,31.827,0,16.67-2.96,26.862,1.809,31.238-6.026,2.519-4.511,2.612-15.935,4.715-40.079,3.632-41.686,3.327-36.6,4.715-51.867,2.358-25.933,4.697-24.425,5.894-43.615.215-3.451,2.943-11.581,2.358-11.788-.558-.197-5.563,5.876-5.894,10.609Z"/><path class="cls-15" d="m97.917,221.852c-1.402,3.238-5.904,4.162-8.94,4.786-2.105.432-6.437,1.265-11.6-.474-2.303-.776-8.532-2.873-9.523-7.337-.521-2.348.917-3.051,3.122-8.976,2.132-5.73,1.354-6.599,3.632-12.669,1.689-4.5,2.533-6.75,4.179-8.454,4.279-4.433,10.511-4.669,14.212-4.81,3.28-.125,5.931-.225,8.442,1.543,3.187,2.244,3.959,5.955,4.251,7.361,1.06,5.094-.878,9.477-2.053,12.134-2.668,6.034-5.551,6.961-5.745,11.624-.112,2.688.8,3.481.024,5.272Z"/><path class="cls-9" d="m98.907,201.52c.426.306,2.605,1.836,5.853,2.458,5.252,1.006,9.472-1.093,12.484-2.592,3.375-1.679,5.43-2.701,6.632-5.05,1.701-3.324.458-6.894-.913-10.83-1.471-4.225-4.088-11.739-10.099-13.263-1.452-.368-3.486.046-7.495.888-7.744,1.628-11.616,2.441-13.3,5.098-1.479,2.334-.961,4.89.073,10.002.897,4.433,1.995,9.858,6.765,13.287Z"/><path class="cls-14" d="m93.741,131.558c-4.87-2.317-8.212,4.645-21.81,6.2-3.97.454-6.528.186-8.05,2.161-1.921,2.494-.047,5.781,1.557,12.873,2.815,12.446.061,15.663,3.435,18.583,3.458,2.992,8.985,1.89,16.667.359,6.372-1.27,9.937-1.981,12.448-5.068,3.004-3.692,2.525-8.358,1.529-16.808-1.279-10.858-1.941-16.475-5.775-18.3Z"/><path class="cls-14" d="m145.589,255.993c1.511-5.177-5.895-7.367-9.598-20.543-1.081-3.846-1.224-6.415-3.417-7.603-2.768-1.499-5.715.875-12.46,3.589-11.838,4.763-15.453,2.557-17.797,6.353-2.403,3.891-.434,9.172,2.303,16.511,2.27,6.088,3.54,9.494,6.987,11.481,4.124,2.377,8.654,1.16,16.837-1.17,10.516-2.994,15.955-4.542,17.145-8.619Z"/><path class="cls-2" d="m94.165,179.071l5.58-.73c2.223,1.335,1.789,3.316,4.582-1.336l33.035-55.019c9.827-16.53,8.455-15.617,5.665-15.252l-8.656,4.565c-2.79.365-2.301,1.181-5.094,5.833l-33.035,55.019c-2.793,4.652-4.301,5.585-2.078,6.92Z"/><g><path class="cls-8" d="m69.637,229.187c2.485-1.032,5.201,2.907,10.609,5.894,5.927,3.273,11.457,3.397,17.682,3.536,18.246.409,29.602-8.997,31.827-5.894.897,1.25-.962,4.387-4.715,10.609-4.956,8.216-7.434,12.324-10.609,14.145-6.226,3.573-13.385,1.126-23.576-2.358-9.238-3.158-21.564-7.371-23.576-16.503-.826-3.748.053-8.473,2.358-9.43Z"/><path class="cls-6" d="m69.637,229.187c-.331,3.502,5.503,6.731,8.252,8.252,5.915,3.273,11.475,3.442,16.503,3.536,4.595.086,4.711-.472,22.397-3.536,8.051-1.395,11.506-1.882,11.788-3.536.275-1.614-2.737-2.78-7.073-5.894-10.94-7.858-11.566-14.656-17.682-15.324-2.77-.303-3.462,1.002-10.609,4.715-15.184,7.888-23.198,7.784-23.576,11.788Z"/><path class="cls-12" d="m79.729,229.996c.655.796,1.541,2.064,2.167,3.851.863,2.463.597,4.103,1.623,4.607,1.032.507,2.653-.489,4.126-1.621,4.674-3.592,7.007-7.903,9.89-12.386,1.588-2.47,3.917-5.884,7.065-9.829"/><path class="cls-13" d="m120.882,235.943c-.957.386-2.623.932-4.875,1.052-1.761.093-3.594.19-4.682-.562-1.336-.924-.358-2.308-.589-4.981-.099-1.143-.653-2.47-1.76-5.122-.84-2.013-2.063-4.682-3.81-7.823"/><path class="cls-12" d="m83.95,226.844c5.662.351,7.179.608,7.182.794.006.343-5.168-.212-6.693,2.085-.674,1.015-.682,2.658.412,3.576,1.121.941,3.234.986,4.865-.168"/><path class="cls-12" d="m105.221,237.021c-2.163,2.176-3.577,2.401-4.472,2.195-1.167-.268-1.607-1.302-3.19-2.841-1.508-1.466-3.009-2.374-4.042-2.913"/><path class="cls-13" d="m104.94,235.148c-.706-.211-1.881-.647-3.192-1.584-1.025-.732-2.093-1.495-2.365-2.399-.335-1.112.829-1.449,1.89-3.045.454-.683.735-1.67,1.298-3.645.427-1.499.934-3.535,1.356-6.068"/><path class="cls-13" d="m101.828,214.692c-2.461,1.872-5.238,3.786-8.342,5.644-6.218,3.721-12.14,6.251-17.242,8.001"/><path class="cls-12" d="m106.697,216.816c1.459,1.582,2.967,3.38,4.457,5.408,2.986,4.063,5.127,8,6.674,11.418"/></g><g><path class="cls-8" d="m147.258,193.519c-1.746-.721-1.139-4.027-2.342-8.196-1.318-4.569-4.003-7.377-7.025-10.537-8.858-9.264-19.169-10.233-18.733-12.879.176-1.066,2.656-1.701,7.61-2.927,6.541-1.619,9.812-2.428,12.293-1.756,4.866,1.318,7.206,6.088,10.537,12.879,3.02,6.156,7.048,14.369,3.512,19.903-1.451,2.271-4.234,4.182-5.854,3.512Z"/><path class="cls-6" d="m147.258,193.519c1.904-1.575.609-6.076,0-8.196-1.312-4.563-3.989-7.408-6.439-9.952-2.239-2.325-2.574-2.105-12.879-9.366-4.691-3.305-6.649-4.779-7.61-4.098-.938.665-.021,2.74.585,6.439,1.53,9.335-1.535,13.022,1.171,16.391,1.225,1.526,2.217,1.222,7.61,2.927,11.458,3.623,15.386,7.654,17.562,5.854Z"/><path class="cls-12" d="m142.648,188.105c.07-.721.26-1.79.836-2.988.795-1.652,1.741-2.334,1.482-3.094-.261-.764-1.56-1.075-2.854-1.244-4.105-.537-7.404.445-11.062,1.24-2.016.438-4.867.977-8.39,1.373"/><path class="cls-13" d="m125.164,164.715c.667.284,1.765.839,2.943,1.899.921.828,1.879,1.69,2.046,2.604.205,1.123-.969,1.324-2.181,2.766-.519.617-.902,1.551-1.67,3.417-.582,1.417-1.301,3.35-1.993,5.777"/><path class="cls-12" d="m138.986,187.575c-2.638-2.986-3.263-3.867-3.173-3.961.167-.173,2.461,2.671,4.359,2.288.839-.169,1.659-.981,1.571-1.981-.089-1.024-1.116-2.096-2.5-2.333"/><path class="cls-12" d="m133.477,171.958c2.155-.006,2.969.584,3.311,1.13.447.713.152,1.445.173,2.995.021,1.477.315,2.673.561,3.453"/><path class="cls-13" d="m132.686,173.027c.246.455.612,1.255.799,2.372.145.873.297,1.781-.017,2.366-.386.718-1.131.308-2.451.574-.565.114-1.195.464-2.455,1.165-.957.532-2.219,1.292-3.687,2.34"/><path class="cls-13" d="m124.073,184.731c2.152.292,4.481.721,6.945,1.34,4.936,1.24,9.133,2.925,12.535,4.589"/><path class="cls-12" d="m122.71,181.258c.061-1.51.205-3.152.472-4.899.535-3.5,1.427-6.519,2.356-8.985"/></g></svg>