<?xml version="1.0" encoding="UTF-8"?><svg id="Layer_1" xmlns="http://www.w3.org/2000/svg" xmlns:xlink="http://www.w3.org/1999/xlink" viewBox="0 0 200 300"><defs><style>.cls-1{fill:none;}.cls-2{clip-path:url(#clippath);}.cls-3{fill:#f2f2f2;}.cls-4,.cls-5{fill:#e6e6e6;}.cls-6{fill:#fff;}.cls-7{fill:#fbffd4;}.cls-8{fill:#fcee77;}.cls-9{fill:#faffb4;}.cls-10{fill:#b4c2ff;}.cls-11{fill:#8ab3ff;}.cls-12{fill:#b3b3b3;}.cls-13{fill:#8cc63f;}.cls-14{fill:#b2d919;}.cls-15{fill:#b2d971;}.cls-16{fill:#86bd19;}.cls-17{fill:#39b54a;}.cls-18{clip-path:url(#clippath-1);}.cls-5{isolation:isolate;}</style><clipPath id="clippath"><rect class="cls-1" x="39.815" y=".884" width="137.185" height="299.301"/></clipPath><clipPath id="clippath-1"><rect class="cls-1" x="39.815" y=".884" width="137.185" height="299.301"/></clipPath></defs><rect id="Rectangle_127" class="cls-3" x="40.215" y="45.669" width="133.051" height="233.77"/><g class="cls-2"><g id="Group_69"><path id="Path_152" class="cls-4" d="m173.266,48.776c0,16.825-29.785,30.465-66.525,30.465s-66.525-13.64-66.525-30.465,29.785-30.465,66.525-30.465,66.525,13.64,66.525,30.465"/><path id="Path_153" class="cls-11" d="m55.137,4.633c.019-1.981,3.52-3.553,6.217-3.73,2.431-.16,5.844.703,6.217,2.487.405,1.953-2.882,4.823-6.217,4.974-2.911.132-6.236-1.791-6.217-3.73"/><path id="Path_154" class="cls-3" d="m39.815,280.998c-.124,2.516,3.495,4.74,9.948,8.704,5.235,3.217,11.117,5.535,21.139,7.461,2.532.486,9.484,1.741,27.356,2.487,13.645.565,20.467.847,29.843,0,10.3-.93,16.874-1.524,24.869-4.974,1.393-.601,20.947-9.189,19.895-16.165-1.587-10.521-49.106-11.094-57.199-11.191-34.893-.42-75.44,5.417-75.851,13.678"/><path id="Path_155" class="cls-9" d="m51.439,99.511c.628-2.683,5.393-3.861,14.922-6.217,3.533-.87,9.215-2.017,22.382-2.487,3.482-.124,9.847-.286,19.895,0,12.364.352,21.225.635,32.33,2.487,13.648,2.276,20.472,3.413,21.139,6.217,1.711,7.202-26.645,26.762-57.199,26.113-28.807-.612-55.112-19.093-53.469-26.113"/><path id="Path_156" class="cls-17" d="m120.849,108.343c-15.906-14.199-20.221-19.122-19.599-19.919.899-1.151,11.886,6.705,13.735,4.649,2.161-2.404-10.339-15.926-7.871-18.652,1.492-1.653,6.865,2.487,9.034.581,3.421-3.01-5.244-17.473-3.963-18.225,1.174-.689,8.922,11.146,9.932,10.569,1.368-.788-10.455-24.025-9.192-24.724.98-.543,7.808,13.594,12.89,12.467,4.378-.97,5.72-12.881,6.129-12.784.373.088-3.204,9.613.211,12.683,3.167,2.843,10.408-1.61,11.464.053,1.108,1.741-10.128,8.28-9.086,10.883,1.149,2.871,16.207-1.133,16.588.211.485,1.71-23.403,9.986-22.98,11.358.274.887,10.343-2.238,11.464.053,1.2,2.456-8.758,9.261-7.871,10.618.768,1.175,8.463-3.581,9.72-2.114.902,1.052-1.492,5.311-11.675,16.538"/><path id="Path_157" class="cls-13" d="m122.284,104.11c-5.232-12.435-7.508-27.803-4.974-28.6,2.814-.884,10.165,16.635,11.191,16.165,1.36-.622-12.238-31.145-9.948-32.33,2.29-1.185,18.423,27.481,21.139,26.113,2.736-1.375-10.412-32.154-7.461-33.574,2.171-1.045,10.239,15.16,14.922,13.678s3.357-19.895,3.73-19.895-1.483,17.888,3.73,19.895c4.85,1.865,14.183-10.601,14.922-9.948.681.602-9.437,9.326-7.461,16.165,1.997,6.916,15.185,7.849,14.922,9.948-.392,3.12-29.553,1.311-29.843,3.73-.259,2.154,22.597,5.618,22.382,8.704-.233,3.339-27.279,3.509-27.356,6.217-.053,1.91,13.395,2.053,13.678,4.974.363,3.73-20.734,12.862-29.843,4.974-1.007-.87-1.973-2.043-3.73-6.217"/><path id="Path_158" class="cls-10" d="m84.859,273.799l-12.41.788L55.257,4.057c1.779,1.253,3.918,1.892,6.093,1.82,2.345-.107,4.578-1.03,6.313-2.611,5.733,90.179,11.465,180.357,17.196,270.532"/><path id="Path_159" class="cls-9" d="m55.057,100.553c-.746,1.845,7.754,7.657,16.165,11.191,9.427,3.962,13.492,2.76,33.574,4.974,23.148,2.552,26.523,4.213,33.574,1.243,8.647-3.642,16.328-11.447,14.922-14.922-.9-2.225-5.191-2.401-9.948-2.487-17.431-.313-30.573.839-36.06,1.243-16.35,1.205-25.734,1.898-38.547,0-7.492-1.109-13.109-2.654-13.678-1.243"/><path id="Path_160" class="cls-7" d="m162.075,277.438c-34.635,18.24-76.034,18.24-110.668,0V99.623c16.631,9.644,35.488,14.787,54.712,14.922,19.646.082,38.959-5.068,55.956-14.922v177.815Z"/><path id="Path_161" class="cls-13" d="m116.944,159.814c-10.354,8.64-24.388,15.316-25.893,13.126-1.669-2.432,12.932-14.59,12.186-15.433-.995-1.119-26.201,20.817-28.004,18.974s20.882-25.658,18.784-27.854c-2.114-2.217-27.699,19.364-29.92,16.958-1.635-1.769,11.501-14.226,8.712-18.271s-20.009,2.611-20.116,2.256,17.533-3.816,17.932-9.389c.366-5.179-14.286-10.46-13.878-11.357.373-.829,11.677,6.294,17.641,2.404,6.028-3.934,3.06-16.818,5.145-17.18,3.097-.538,9.902,27.876,12.3,27.445,2.134-.383-1.243-23.253,1.773-23.949,3.26-.755,11.338,25.058,13.95,24.338,1.843-.507-1.956-13.408.754-14.535,3.466-1.44,18.366,16.062,13.489,27.081-.538,1.219-1.377,2.487-4.85,5.387"/><path id="Path_162" class="cls-16" d="m158.344,150.74c0,18.199-14.753,32.952-32.952,32.952s-32.952-14.753-32.952-32.952,14.753-32.952,32.952-32.952h0c18.199,0,32.952,14.753,32.952,32.952"/><path id="Path_163" class="cls-14" d="m152.127,150.74c0,14.765-11.969,26.734-26.734,26.734s-26.734-11.969-26.734-26.734,11.969-26.734,26.734-26.734,26.734,11.969,26.734,26.734h0"/><path id="Path_164" class="cls-15" d="m126.095,149.324c-2.735-4.592-4.187-9.834-4.204-15.179-.073-1.411.135-2.822.614-4.151.386-1.227,1.458-2.112,2.736-2.257,1.248.223,2.303,1.051,2.814,2.211,1.33,2.546,1.903,5.419,1.651,8.28-.242,2.86-.815,5.682-1.709,8.41-.409,1.376-.839,2.744-1.289,4.103"/><path id="Path_165" class="cls-6" d="m126.901,148.856c-1.926-3.222-3.2-6.79-3.752-10.502-.318-1.903-.411-3.837-.279-5.762.106-1.243.706-4.228,2.559-3.881,1.639.303,2.506,2.931,2.876,4.291.469,1.849.619,3.764.444,5.663-.5,4.047-1.486,8.018-2.936,11.829-.373,1.143,1.424,1.633,1.799.497,2.17-6.569,5.108-14.974,1.252-21.512-.629-1.296-1.791-2.254-3.183-2.624-1.352-.141-2.668.498-3.393,1.648-1.97,2.678-1.436,6.871-.995,9.948.559,4.013,1.919,7.872,3.998,11.349.26.446.833.598,1.279.338s.598-.833.338-1.279"/><path id="Path_166" class="cls-15" d="m123.475,151.531c-4.583-2.75-8.344-6.68-10.89-11.379-.732-1.208-1.216-2.55-1.424-3.947-.242-1.265.286-2.553,1.345-3.285,1.204-.395,2.526-.165,3.525.614,2.377,1.613,4.242,3.873,5.375,6.512,1.14,2.634,1.972,5.391,2.477,8.216.291,1.409.56,2.819.806,4.228"/><path id="Path_167" class="cls-6" d="m123.946,150.722c-2.413-1.433-4.596-3.222-6.476-5.306-2.066-2.169-3.727-4.69-4.904-7.445-.439-1.135-.911-2.908.016-3.948,1.015-1.139,3.015.257,3.883.944,2.263,1.948,3.946,4.482,4.864,7.323,1.119,3.402,1.942,6.895,2.461,10.439.208,1.18,2.004.68,1.798-.497-1.195-6.804-2.562-15.234-8.829-19.345-1.266-1.011-2.948-1.336-4.5-.87-1.243.639-2.028,1.915-2.037,3.313-.008,1.755.473,3.477,1.39,4.974.84,1.575,1.814,3.075,2.911,4.483,2.322,3.032,5.199,5.595,8.478,7.553.445.26,1.016.11,1.276-.334s.11-1.016-.334-1.276"/><path id="Path_168" class="cls-15" d="m124.107,149.503c-4.748,2.454-10.068,3.588-15.404,3.285-1.411-.012-2.806-.305-4.103-.862-1.203-.46-2.022-1.586-2.088-2.872.298-1.232,1.188-2.235,2.376-2.676,2.621-1.174,5.524-1.574,8.365-1.151,2.84.414,5.622,1.156,8.291,2.211,1.349.491,2.688,1.002,4.016,1.533"/><path id="Path_169" class="cls-6" d="m123.637,148.699c-3.347,1.738-7.007,2.79-10.766,3.094-1.948.206-3.913.172-5.853-.101-1.332-.224-4.557-1.323-3.304-3.233.928-1.408,3.109-1.961,4.665-2.238,1.887-.301,3.812-.285,5.694.048,3.863.79,7.63,1.994,11.236,3.591,1.119.444,1.599-1.359.497-1.798-6.421-2.559-14.256-5.8-21.054-2.661-1.378.514-2.481,1.579-3.043,2.938-.331,1.363.18,2.792,1.299,3.637,2.519,2.169,6.778,1.925,9.863,1.67,4.087-.322,8.068-1.46,11.707-3.349,1.064-.557.124-2.167-.941-1.61"/><path id="Path_170" class="cls-15" d="m126.946,151.873c-1.759,5.165-5.076,9.657-9.495,12.857-1.111.891-2.417,1.509-3.811,1.802-1.402.282-2.843-.246-3.73-1.368-.671-1.243-.72-2.729-.132-4.014,1.105-2.699,3.085-4.949,5.622-6.389,2.522-1.425,5.226-2.5,8.038-3.197,1.409-.398,2.822-.771,4.238-1.119"/><path id="Path_171" class="cls-6" d="m126.045,151.626c-.96,2.817-2.41,5.441-4.285,7.752-1.804,2.378-4.1,4.338-6.732,5.746-1.234.729-2.773.701-3.979-.072-1.186-.989-.734-2.835-.209-4.05,1.303-2.66,3.473-4.798,6.151-6.062,3.488-1.628,7.158-2.832,10.933-3.585,1.166-.286.673-2.085-.497-1.799-6.828,1.675-15.589,3.77-18.451,11.093-.755,1.589-.709,3.443.124,4.993.875,1.212,2.291,1.915,3.785,1.878,1.793-.104,3.508-.766,4.905-1.894,1.429-1.012,2.757-2.16,3.964-3.428,2.729-2.88,4.805-6.316,6.084-10.072.389-1.139-1.411-1.628-1.798-.497"/><path id="Path_172" class="cls-15" d="m128.433,150.749c.801-5.284,3.005-10.256,6.383-14.397.838-1.137,1.895-2.095,3.109-2.819,1.079-.702,2.471-.702,3.55,0,.822.964,1.111,2.275.771,3.495-.589,2.811-1.969,5.395-3.979,7.446-2.003,2.056-4.237,3.873-6.658,5.414-1.19.803-2.39,1.587-3.6,2.35"/><path id="Path_173" class="cls-6" d="m129.332,150.996c.416-2.884,1.278-5.685,2.555-8.304,1.248-2.749,2.989-5.247,5.138-7.368.849-.778,2.353-1.818,3.574-1.263s.818,2.611.563,3.606c-.877,2.889-2.559,5.468-4.85,7.435-2.724,2.374-5.662,4.49-8.775,6.323-1.012.639-.077,2.254.941,1.61,5.79-3.66,13.208-8.152,14.613-15.467.426-1.469.2-3.05-.622-4.34-.969-1.069-2.484-1.453-3.845-.974-3.178.884-5.435,4.43-7.034,7.088-2.081,3.413-3.46,7.206-4.055,11.159-.17,1.174,1.626,1.681,1.798.497"/><path id="Path_174" class="cls-15" d="m127.13,150.493c4.227-3.271,9.254-5.347,14.557-6.011,1.392-.244,2.818-.208,4.195.106,1.266.235,2.275,1.194,2.573,2.447-.069,1.267-.764,2.416-1.854,3.065-2.366,1.629-5.149,2.546-8.019,2.642-2.868.106-5.739-.122-8.555-.678-1.416-.239-2.825-.5-4.228-.783"/><path id="Path_175" class="cls-6" d="m127.789,151.153c2.861-2.211,6.121-3.85,9.602-4.828,1.778-.533,3.607-.878,5.458-1.03,1.338-.093,4.534-.071,4.668,1.879.116,1.676-2.542,2.968-3.798,3.49-1.706.685-3.517,1.076-5.354,1.154-4.147.037-8.283-.446-12.31-1.439-1.173-.235-1.675,1.562-.497,1.798,6.839,1.368,15.543,3.29,21.614-1.348,1.265-.802,2.087-2.145,2.225-3.637-.11-1.374-.976-2.573-2.246-3.109-3.024-1.492-7.182-.444-10.25.438-3.784,1.082-7.324,2.884-10.425,5.308-.944.74.384,2.052,1.319,1.319"/><path id="Path_176" class="cls-15" d="m129.148,151.887c5.278.84,10.234,3.082,14.35,6.492,1.13.847,2.081,1.911,2.795,3.13.696,1.083.687,2.476-.022,3.55-.97.815-2.282,1.095-3.5.746-2.806-.61-5.38-2.01-7.416-4.035-2.041-2.017-3.842-4.264-5.364-6.696-.796-1.196-1.57-2.402-2.324-3.617"/><path id="Path_177" class="cls-6" d="m128.9,152.786c2.88.435,5.675,1.316,8.284,2.611,2.74,1.268,5.224,3.029,7.329,5.194.771.854,1.798,2.37,1.229,3.584s-2.622.792-3.617.53c-2.881-.899-5.447-2.6-7.397-4.903-2.353-2.744-4.447-5.699-6.256-8.829-.633-1.017-2.247-.082-1.617.941,3.618,5.818,8.058,13.263,15.364,14.723,1.466.435,3.049.215,4.341-.603,1.074-.963,1.466-2.475.995-3.839-.86-3.183-4.396-5.471-7.034-7.088-3.398-2.106-7.182-3.512-11.13-4.136-1.175-.179-1.681,1.617-.497,1.798"/><path id="Path_178" class="cls-15" d="m127.003,151.079c3.677,3.879,6.245,8.674,7.436,13.885.382,1.36.488,2.783.313,4.184-.107,1.284-.961,2.383-2.179,2.804-1.267.057-2.478-.52-3.233-1.539-1.855-2.19-3.045-4.865-3.429-7.709-.392-2.843-.452-5.723-.18-8.58.095-1.433.214-2.862.357-4.285"/><path id="Path_179" class="cls-6" d="m126.344,151.739c2.46,2.577,4.41,5.596,5.745,8.899.711,1.721,1.252,3.507,1.617,5.333.269,1.393.637,4.531-1.251,5.034-1.659.443-3.257-2.128-3.914-3.319-.841-1.58-1.414-3.289-1.695-5.057-.734-4.189-.233-8.596.178-12.794.117-1.195-1.748-1.186-1.865,0-.676,6.91-1.67,15.685,3.526,21.237.956,1.231,2.463,1.905,4.018,1.796,1.373-.357,2.442-1.435,2.788-2.811,1.021-3.17-.466-7.154-1.669-10.084-1.433-3.543-3.52-6.783-6.154-9.552-.833-.87-2.151.453-1.319,1.319"/><path id="Path_180" class="cls-17" d="m122.731,251.35c-15.906-14.199-20.221-19.122-19.599-19.917.899-1.151,11.886,6.705,13.735,4.649,2.161-2.404-10.339-15.926-7.872-18.652,1.498-1.653,6.866,2.487,9.035.581,3.421-3.01-5.244-17.473-3.963-18.225,1.174-.689,8.922,11.146,9.932,10.569,1.368-.788-10.455-24.025-9.192-24.724.98-.543,7.808,13.594,12.89,12.467,4.378-.97,5.72-12.881,6.129-12.784.373.088-3.204,9.613.211,12.683,3.167,2.843,10.408-1.61,11.464.053,1.108,1.741-10.128,8.28-9.086,10.883,1.149,2.871,16.207-1.133,16.588.211.485,1.71-23.403,9.986-22.98,11.358.272.887,10.343-2.238,11.464.053,1.2,2.456-8.758,9.261-7.871,10.618.768,1.175,8.463-3.581,9.72-2.114.902,1.052-1.492,5.311-11.675,16.538"/><path id="Path_181" class="cls-16" d="m124.771,236.539c0,18.199-14.753,32.952-32.952,32.952s-32.952-14.753-32.952-32.952,14.753-32.952,32.952-32.952h0c18.199,0,32.952,14.753,32.952,32.952"/><path id="Path_182" class="cls-14" d="m118.553,236.539c0,14.765-11.969,26.734-26.734,26.734s-26.734-11.969-26.734-26.734,11.969-26.734,26.734-26.734h0c14.765,0,26.734,11.969,26.734,26.734"/><path id="Path_183" class="cls-15" d="m92.521,235.123c-2.735-4.592-4.187-9.834-4.204-15.179-.073-1.411.135-2.822.614-4.151.386-1.227,1.458-2.112,2.736-2.257,1.248.223,2.303,1.051,2.814,2.211,1.33,2.546,1.903,5.419,1.651,8.28-.242,2.86-.815,5.682-1.709,8.41-.41,1.376-.839,2.744-1.289,4.103"/><path id="Path_184" class="cls-6" d="m93.327,234.656c-1.926-3.222-3.2-6.79-3.752-10.502-.318-1.903-.411-3.837-.279-5.762.106-1.243.706-4.228,2.559-3.881,1.639.303,2.506,2.931,2.876,4.291.469,1.849.619,3.764.444,5.663-.5,4.047-1.486,8.018-2.936,11.829-.373,1.143,1.424,1.633,1.799.497,2.17-6.569,5.108-14.974,1.252-21.512-.629-1.296-1.791-2.254-3.183-2.624-1.352-.141-2.668.498-3.393,1.648-1.97,2.678-1.436,6.871-.995,9.948.559,4.013,1.919,7.872,3.998,11.349.261.444.832.593,1.276.333.444-.261.593-.832.333-1.276"/><path id="Path_185" class="cls-15" d="m89.902,237.33c-4.583-2.75-8.344-6.68-10.89-11.379-.732-1.208-1.216-2.55-1.424-3.947-.242-1.265.286-2.553,1.345-3.285,1.204-.395,2.526-.165,3.525.614,2.377,1.613,4.242,3.873,5.375,6.512,1.14,2.634,1.972,5.39,2.477,8.216.291,1.409.56,2.818.806,4.228"/><path id="Path_186" class="cls-6" d="m90.373,236.521c-2.413-1.433-4.596-3.222-6.476-5.306-2.066-2.169-3.727-4.69-4.904-7.445-.439-1.135-.911-2.908.016-3.948,1.015-1.139,3.015.257,3.883.944,2.263,1.948,3.946,4.482,4.864,7.323,1.119,3.404,1.942,6.899,2.461,10.445.208,1.18,2.004.68,1.798-.497-1.195-6.804-2.562-15.234-8.829-19.345-1.266-1.011-2.948-1.336-4.5-.87-1.243.639-2.028,1.915-2.037,3.313-.008,1.755.473,3.477,1.39,4.974.84,1.573,1.814,3.07,2.911,4.476,2.322,3.032,5.199,5.595,8.478,7.553.445.26,1.016.11,1.276-.334.26-.445.11-1.016-.334-1.276"/><path id="Path_187" class="cls-15" d="m90.534,235.302c-4.749,2.454-10.069,3.588-15.405,3.285-1.411-.012-2.806-.305-4.103-.862-1.203-.46-2.022-1.586-2.088-2.872.298-1.232,1.188-2.235,2.376-2.676,2.621-1.174,5.523-1.574,8.364-1.151,2.84.414,5.622,1.156,8.291,2.211,1.35.492,2.689,1.003,4.016,1.533"/><path id="Path_188" class="cls-6" d="m90.063,234.498c-3.347,1.738-7.007,2.79-10.766,3.094-1.948.206-3.913.172-5.853-.101-1.332-.224-4.557-1.323-3.304-3.233.928-1.408,3.109-1.961,4.665-2.238,1.887-.301,3.812-.284,5.694.05,3.863.789,7.631,1.993,11.236,3.59,1.119.444,1.599-1.359.497-1.798-6.421-2.559-14.256-5.8-21.054-2.661-1.378.514-2.481,1.579-3.043,2.938-.331,1.363.18,2.792,1.299,3.637,2.519,2.169,6.778,1.925,9.863,1.67,4.087-.322,8.068-1.46,11.707-3.349,1.064-.557.124-2.167-.941-1.61"/><path id="Path_189" class="cls-15" d="m93.371,237.672c-1.758,5.165-5.076,9.658-9.495,12.857-1.111.891-2.417,1.509-3.811,1.802-1.402.282-2.843-.246-3.73-1.368-.671-1.243-.72-2.729-.132-4.014,1.105-2.699,3.085-4.949,5.622-6.389,2.522-1.425,5.227-2.501,8.039-3.197,1.409-.398,2.821-.771,4.236-1.119"/><path id="Path_190" class="cls-6" d="m92.472,237.425c-.96,2.817-2.41,5.441-4.285,7.752-1.804,2.378-4.1,4.338-6.732,5.746-1.234.729-2.773.701-3.979-.072-1.186-.989-.734-2.835-.209-4.05,1.303-2.66,3.473-4.798,6.151-6.062,3.488-1.628,7.158-2.832,10.933-3.585,1.166-.286.673-2.085-.497-1.799-6.828,1.675-15.589,3.77-18.451,11.093-.755,1.589-.709,3.443.124,4.993.875,1.212,2.291,1.915,3.785,1.878,1.793-.104,3.508-.766,4.905-1.894,1.429-1.012,2.757-2.16,3.964-3.428,2.729-2.88,4.805-6.316,6.084-10.072.389-1.139-1.411-1.628-1.798-.497"/><path id="Path_191" class="cls-15" d="m94.859,236.548c.801-5.284,3.005-10.256,6.383-14.397.838-1.137,1.895-2.095,3.109-2.819,1.079-.702,2.471-.702,3.55,0,.822.964,1.111,2.275.771,3.495-.589,2.811-1.969,5.395-3.979,7.446-2.003,2.056-4.237,3.873-6.658,5.414-1.19.803-2.392,1.587-3.606,2.35"/><path id="Path_192" class="cls-6" d="m95.758,236.796c.416-2.884,1.278-5.685,2.555-8.304,1.248-2.749,2.989-5.247,5.138-7.368.849-.778,2.353-1.818,3.574-1.263s.818,2.611.563,3.606c-.877,2.889-2.559,5.468-4.85,7.435-2.724,2.374-5.662,4.49-8.775,6.323-1.012.639-.077,2.254.941,1.61,5.79-3.66,13.208-8.152,14.613-15.467.426-1.469.2-3.05-.622-4.34-.969-1.069-2.484-1.453-3.845-.974-3.178.884-5.435,4.43-7.034,7.088-2.081,3.413-3.46,7.206-4.055,11.159-.17,1.174,1.626,1.681,1.798.497"/><path id="Path_193" class="cls-15" d="m93.556,236.292c4.227-3.271,9.254-5.347,14.557-6.011,1.392-.244,2.818-.208,4.195.106,1.266.235,2.275,1.194,2.573,2.447-.069,1.267-.764,2.416-1.854,3.065-2.366,1.629-5.149,2.546-8.019,2.642-2.868.106-5.739-.122-8.555-.678-1.416-.239-2.825-.5-4.228-.783"/><path id="Path_194" class="cls-6" d="m94.215,236.952c2.861-2.211,6.121-3.85,9.602-4.828,1.778-.533,3.607-.878,5.458-1.03,1.338-.093,4.534-.071,4.668,1.879.116,1.676-2.542,2.968-3.798,3.49-1.706.686-3.517,1.076-5.354,1.154-4.15.038-8.287-.445-12.317-1.439-1.173-.235-1.675,1.562-.497,1.798,6.839,1.368,15.543,3.29,21.614-1.348,1.265-.802,2.087-2.145,2.225-3.637-.11-1.374-.976-2.573-2.246-3.109-3.024-1.492-7.182-.444-10.25.438-3.784,1.082-7.324,2.884-10.425,5.308-.944.746.384,2.052,1.319,1.319"/><path id="Path_195" class="cls-15" d="m95.574,237.686c5.278.84,10.234,3.082,14.35,6.492,1.13.847,2.081,1.911,2.795,3.13.696,1.083.687,2.476-.022,3.55-.97.815-2.282,1.095-3.5.746-2.806-.61-5.38-2.01-7.416-4.035-2.041-2.017-3.842-4.264-5.364-6.696-.796-1.196-1.57-2.402-2.324-3.617"/><path id="Path_196" class="cls-6" d="m95.327,238.585c2.88.435,5.675,1.316,8.284,2.611,2.74,1.268,5.224,3.029,7.328,5.194.772.854,1.799,2.37,1.23,3.584s-2.622.792-3.617.53c-2.881-.899-5.447-2.6-7.397-4.903-2.353-2.744-4.447-5.699-6.256-8.829-.633-1.017-2.247-.082-1.617.941,3.618,5.818,8.058,13.263,15.364,14.723,1.466.435,3.049.215,4.341-.603,1.074-.963,1.466-2.475.995-3.839-.86-3.183-4.396-5.471-7.034-7.088-3.398-2.106-7.182-3.512-11.13-4.136-1.175-.179-1.681,1.617-.497,1.798"/><path id="Path_197" class="cls-15" d="m93.429,236.878c3.677,3.879,6.245,8.674,7.436,13.885.382,1.36.488,2.783.313,4.184-.107,1.284-.961,2.383-2.179,2.804-1.267.057-2.478-.52-3.233-1.539-1.855-2.19-3.045-4.865-3.429-7.709-.392-2.843-.452-5.723-.18-8.58.095-1.433.214-2.862.357-4.285"/><path id="Path_198" class="cls-6" d="m92.77,237.538c2.46,2.577,4.41,5.596,5.745,8.899.711,1.721,1.252,3.507,1.617,5.333.269,1.393.637,4.531-1.251,5.034-1.659.443-3.257-2.128-3.914-3.319-.841-1.58-1.414-3.289-1.695-5.057-.734-4.189-.233-8.596.178-12.794.117-1.195-1.748-1.186-1.865,0-.676,6.91-1.67,15.685,3.526,21.237.956,1.231,2.463,1.905,4.018,1.796,1.373-.357,2.442-1.435,2.788-2.811,1.021-3.17-.466-7.154-1.669-10.084-1.433-3.543-3.52-6.783-6.154-9.552-.833-.87-2.151.453-1.319,1.319"/></g></g><rect class="cls-5" x="72" y="139" width="36" height="35" transform="translate(72.901 -23.222) rotate(24.467)"/><rect class="cls-12" x="98" y="225" width="34" height="34" transform="translate(-81.863 60.247) rotate(-21.868)"/><g id="Group_82"><g class="cls-18"><g id="Group_81"><path id="Path_201" class="cls-8" d="m132.232,268.869c0,1.03-.835,1.865-1.865,1.865s-1.865-.835-1.865-1.865.835-1.865,1.865-1.865,1.865.835,1.865,1.865"/><path id="Path_202" class="cls-6" d="m155.857,245.865c0,3.434-2.784,6.217-6.217,6.217s-6.217-2.784-6.217-6.217,2.784-6.217,6.217-6.217,6.217,2.784,6.217,6.217"/><path id="Path_203" class="cls-8" d="m158.344,267.004c0,1.373-1.113,2.487-2.487,2.487s-2.487-1.113-2.487-2.487,1.113-2.487,2.487-2.487,2.487,1.113,2.487,2.487"/><path id="Path_204" class="cls-8" d="m145.91,235.918c0,.687-.557,1.243-1.243,1.243s-1.243-.557-1.243-1.243.557-1.243,1.243-1.243,1.243.557,1.243,1.243"/><path id="Path_205" class="cls-8" d="m91.197,280.061c0,1.03-.835,1.865-1.865,1.865s-1.865-.835-1.865-1.865.835-1.865,1.865-1.865,1.865.835,1.865,1.865"/><path id="Path_206" class="cls-8" d="m84.98,273.222c0,1.373-1.113,2.487-2.487,2.487s-2.487-1.113-2.487-2.487,1.113-2.487,2.487-2.487,2.487,1.113,2.487,2.487"/><path id="Path_207" class="cls-8" d="m62.598,260.787c0,.687-.557,1.243-1.243,1.243s-1.243-.557-1.243-1.243.557-1.243,1.243-1.243,1.243.557,1.243,1.243"/><path id="Path_208" class="cls-8" d="m57.624,227.835c0,1.03-.835,1.865-1.865,1.865s-1.865-.835-1.865-1.865.835-1.865,1.865-1.865,1.865.835,1.865,1.865"/><path id="Path_210" class="cls-8" d="m60.111,270.735c0,1.373-1.113,2.487-2.487,2.487s-2.487-1.113-2.487-2.487,1.113-2.487,2.487-2.487,2.487,1.113,2.487,2.487"/><path id="Path_211" class="cls-8" d="m132.232,278.817c0,1.03-.835,1.865-1.865,1.865s-1.865-.835-1.865-1.865.835-1.865,1.865-1.865,1.865.835,1.865,1.865h0"/><path id="Path_212" class="cls-6" d="m88.71,191.153c0,2.747-2.227,4.974-4.974,4.974s-4.974-2.227-4.974-4.974,2.227-4.974,4.974-4.974,4.974,2.227,4.974,4.974"/><path id="Path_213" class="cls-6" d="m75.032,119.032c0,2.06-1.67,3.73-3.73,3.73s-3.73-1.67-3.73-3.73,1.67-3.73,3.73-3.73,3.73,1.67,3.73,3.73"/><path id="Path_214" class="cls-6" d="m144.666,188.666c0,1.373-1.113,2.487-2.487,2.487s-2.487-1.113-2.487-2.487,1.113-2.487,2.487-2.487,2.487,1.113,2.487,2.487"/><path id="Path_215" class="cls-6" d="m122.284,174.366c0,1.717-1.392,3.109-3.109,3.109s-3.109-1.392-3.109-3.109,1.392-3.109,3.109-3.109,3.109,1.392,3.109,3.109"/><path id="Path_216" class="cls-6" d="m109.849,219.131c0,1.717-1.392,3.109-3.109,3.109s-3.109-1.392-3.109-3.109,1.392-3.109,3.109-3.109,3.109,1.392,3.109,3.109"/><path id="Path_217" class="cls-6" d="m76.276,249.596c0,1.373-1.113,2.487-2.487,2.487s-2.487-1.113-2.487-2.487,1.113-2.487,2.487-2.487,2.487,1.113,2.487,2.487"/><path id="Path_218" class="cls-6" d="m113.58,254.57c0,1.373-1.113,2.487-2.487,2.487s-2.487-1.113-2.487-2.487,1.113-2.487,2.487-2.487,2.487,1.113,2.487,2.487"/><path id="Path_219" class="cls-6" d="m119.797,237.161c0,1.373-1.113,2.487-2.487,2.487s-2.487-1.113-2.487-2.487,1.113-2.487,2.487-2.487,2.487,1.113,2.487,2.487"/><path id="Path_220" class="cls-6" d="m96.171,161.31c0,1.373-1.113,2.487-2.487,2.487s-2.487-1.113-2.487-2.487,1.113-2.487,2.487-2.487,2.487,1.113,2.487,2.487"/></g></g></g></svg>