<?xml version="1.0" encoding="UTF-8"?><svg id="Layer_1" xmlns="http://www.w3.org/2000/svg" viewBox="0 0 200 300"><defs><style>.cls-1{fill:#f7f5d5;}.cls-2{fill:#f7931e;}.cls-3,.cls-4,.cls-5{fill:#ffe37d;}.cls-6{fill:#ffeda7;}.cls-7{fill:#999;}.cls-8{fill:#8c6239;}.cls-9{fill:#c9e5e0;}.cls-4,.cls-10,.cls-11{stroke-width:.5px;}.cls-4,.cls-10,.cls-11,.cls-5{stroke-miterlimit:10;}.cls-4,.cls-5{stroke:#fbb03b;}.cls-10{fill:#6a893a;stroke:#006837;}.cls-11{fill:#f6ffff;stroke:#000;}.cls-5{stroke-width:.75px;}</style></defs><ellipse class="cls-11" cx="107.043" cy="286.023" rx="41.843" ry="13.977"/><path class="cls-11" d="m83.507,183.848c-6.325-5.766-4.581-4.076-8.369-7.711-8.861-8.505-12.622-17.916-14.645-23.134-2.095-5.406-4.184-10.796-4.184-18.314,0-1.759.114-9.257,4.184-18.314,5.255-11.695,10.275-10.788,12.553-18.314,4.273-14.124-10.133-28.126-6.276-30.845,1.226-.865,2.969.349,8.369,1.928,5.595,1.636,9.658,2.055,17.783,2.892,4.616.476,19.269,1.985,34.52-.964,3.815-.738,7.675-1.266,11.507-1.928,9.157-1.581,11.62-2.12,12.553-.964,1.418,1.758-2.555,5.136-5.23,11.567-.27.648-3.565,8.814-2.092,17.35,1.652,9.577,7.717,10.422,12.553,23.134,2.539,6.675,3.032,12.133,3.138,13.495,1.065,13.61-4.667,24.171-7.322,28.917-3.733,6.672-10.16,12.48-23.013,24.098-7.493,6.773-11.726,9.787-17.783,10.603-7.012.945-12.767-1.555-13.599-1.928-4.496-2.017-7.747-5.279-14.645-11.567Z"/><path class="cls-3" d="m109.136,193.965c3.667,0,10.455.942,15.691-4.095,6.984-6.72,6.752-7.685,11.507-12.285,7.028-6.801,12.569-12.175,15.691-18.428,3.025-6.059,8.936-11.746,6.276-28.666-2.092-13.309-4.184-9.121-8.369-20.382-1.044-2.811-4.379-6.092-6.276-7.711-1.35-1.153,3.751-1.587-6.416.067-8.557,1.391-8.129,1.916-11.507,2.048-7.146.278-7.819-2.12-14.645-2.048-6.152.065-6.215,2.019-14.645,3.071-2.944.368-.715.346-7.183-.639-4.255-.648-5.049-1.858-13.599-3.071-3.753-.533-3.447,1.988-4.184,2.5-2.889,2.008-4.631.654-9.415,13.495-.906,2.433-4.275,8.539-4.184,13.695.138,7.82,2.17,13.01,2.998,18.043.752,4.574,5.153,11.78,9.554,18.813,2.403,3.839,4.391,5.631,10.461,11.262,8.826,8.189,8.49,8.27,14.645,12.285"/><ellipse class="cls-5" cx="128.488" cy="134.688" rx="3.661" ry="3.374"/><ellipse class="cls-4" cx="134.241" cy="140.472" rx="2.615" ry="2.892"/><ellipse class="cls-5" cx="70.954" cy="127.941" rx="2.615" ry="2.41"/><ellipse class="cls-4" cx="88.737" cy="171.799" rx="3.138" ry="2.41"/><ellipse class="cls-4" cx="90.306" cy="166.016" rx="1.569" ry="1.446"/><ellipse class="cls-4" cx="136.333" cy="135.17" rx="1.569" ry="1.446"/><ellipse class="cls-4" cx="74.615" cy="124.567" rx="1.569" ry="1.446"/><ellipse class="cls-4" cx="117.504" cy="186.258" rx="1.569" ry="1.446"/><path class="cls-1" d="m75.138,90.348c-.919.307.698,2.917-.523,6.265-1.204,3.303-2.092,5.783-2.092,5.783-.675.866-2.335,2.468-2.092,2.892.347.604,4.11-.923,6.276-.964,3.512-.067,1.794.831,5.753,1.446,1.886.293,4.944,2.609,7.845,2.41,7.357-.505,6.69-1.7,11.507-1.928,7.541-.357,7.923.075,13.076-1.446,2.623-.774,5.684,2.318,8.892,2.41,2.616.075,5.858-2.92,8.369-2.892,3.985.045,3.675.779,7.322.964,2.915.148,5.613-.295,6.276-.964.513-.518-1.463-3.396-2.092-5.783-.907-3.441.149-4.789-1.046-5.783-1.572-1.308-8.475.329-8.892.482-2.429.894-2.389,2.182-4.184,2.892-3.108,1.228-5.023-1.922-9.415-1.928-5.214-.007-6.309,4.427-10.461,3.856-3.882-.534-4.342-4.604-8.369-4.82-2.286-.122-2.322,1.179-6.276,1.928-2.378.45-4.375.3-8.369,0-3.324-.25-4.986-.375-6.276-.964-3.305-1.509-4.224-4.192-5.23-3.856Z"/><ellipse class="cls-9" cx="107.043" cy="285.541" rx="38.704" ry="12.531"/><path class="cls-11" d="m113.843,283.131h-13.599c-2.877,0,1.046-6.024,1.046-8.675v-74.222c0-2.651-12.291-9.639-9.415-9.639,2.743,1.367,7.849,3.482,14.645,3.856,7.811.429,13.821-1.663,16.737-2.892.192-.004.325.027.368.11.465.898-11.874,7.074-11.874,9.53v73.258c.349,2.892,1.743,5.783,2.092,8.675Z"/><rect class="cls-7" x="105.997" y="201.681" width="1.046" height="77.113" rx=".449" ry=".449"/><rect class="cls-7" x="103.791" y="197.535" width="1.046" height="72.294" rx=".449" ry=".449"/><ellipse class="cls-11" cx="108.612" cy="68.178" rx="42.366" ry="6.265"/><path class="cls-2" d="m121.686,73.484l3.707.427c3.433.016,4.448.066,5.102-1.524L158.41,4.564c.654-1.59-.571-3.507-2.722-4.259h0c-2.152-.752-4.448-.066-5.102,1.524l-27.914,67.824c-.654,1.59-2.005,3.768-.985,3.831Z"/><path class="cls-2" d="m110.182,103.361h4.184c2.152.752,2.4,1.642,3.216-.341l9.652-23.452c2.822-7.052,1.776-5.124-.316-5.124h-5.23c-2.092,0-1.463.407-2.279,2.39l-9.652,23.452c-.816,1.983-1.728,2.323.424,3.075Z"/><path class="cls-6" d="m40.874,44.219c.825,3.277,4.29,4.545,8.832,7.112,1.983,1.121,8.537,6.69,21.646,17.828,8.376,7.117,9.235,8.208,10.01,9.409.603.935,1.411,2.334,2.044,2.201,1.028-.216.768-4.31.585-8.965,0,0-.078-1.992-.248-15.346-.066-5.216.565-10.018,1.828-19.622,1.861-14.153,3.529-19.573.754-21.121-2.502-1.395-7.287,1.098-8.551,1.757-3.492,1.82-3.167,3.21-6.404,4.756-2.722,1.3-3.324.494-9.417,1.853-4.617,1.03-6.953,1.581-8.343,3.352-1.558,1.986-.368,3.223-1.972,5.073-2.031,2.344-4.652,1.182-7.478,3.256-2.671,1.962-3.983,5.685-3.286,8.456Z"/><path class="cls-10" d="m47.584,22.798c-1.591.851-1.302,1.028-4.166,3.071-5.534,3.947-7.546,3.95-8.333,6.143-.519,1.447-.069,2.757.833,5.375.976,2.832,2.962,6.388,4.166,6.143.75-.153.513-1.643,1.667-3.839.484-.921,1.424-2.594,3.333-3.839,2.025-1.321,3.027-.314,5-1.536,1.577-.976,1.225-1.721,3.333-3.839.885-.89,2.223-2.235,4.166-3.071,1.193-.514,1.839-.502,6.666-.768,5.888-.324,6.556-.43,7.499-.768,1.849-.662,1.393-1.008,5-3.071,3.445-1.971,5.168-2.956,7.499-3.071,2.278-.113,3.733.624,4.166,0,.47-.677-.772-2.219-1.667-3.071-3.286-3.128-8.337-3.089-9.166-3.071-2.03.042-2.861.43-9.999,3.071-6.506,2.407-9.781,3.615-10.833,3.839-4.022.855-6.013.618-9.166,2.304Z"/><path class="cls-8" d="m80.35,56.436l.072.002c.268.006.492-.191.499-.437l.826-30.903c.007-.247-.207-.453-.475-.46l-.072-.002c-.268-.006-.492.191-.499.437l-.826,30.903c-.007.247.207.453.475.46Z"/><path class="cls-8" d="m75.316,59.51l-.064.03c-.238.112-.533.024-.655-.196l-12.4-22.38c-.122-.22-.026-.491.212-.604l.064-.03c.238-.112.533-.024.655.196l12.4,22.38c.122.22.026.491-.212.604Z"/><path class="cls-8" d="m64.678,52.956l-.054.044c-.2.164-.51.147-.687-.038l-11.852-12.306c-.178-.185-.159-.47.041-.633l.054-.044c.2-.164.51-.147.687.038l11.852,12.306c.178.185.159.47-.041.633Z"/></svg>