<?xml version="1.0" encoding="UTF-8"?><svg id="Aperol" xmlns="http://www.w3.org/2000/svg" xmlns:xlink="http://www.w3.org/1999/xlink" viewBox="0 0 200 300"><defs><style>.cls-1{stroke:url(#linear-gradient-2);}.cls-1,.cls-2,.cls-3,.cls-4,.cls-5,.cls-6{stroke-miterlimit:10;}.cls-1,.cls-3{fill:none;}.cls-7{fill:url(#linear-gradient);}.cls-8{filter:url(#luminosity-noclip-2);}.cls-9{mask:url(#mask);}.cls-10{filter:url(#luminosity-noclip);}.cls-11{fill:#f7ec22;}.cls-12{fill:#fff0e2;}.cls-13{fill:#e4f1f9;}.cls-14{fill:#d1e1e8;}.cls-15{fill:#e1eaef;}.cls-2{fill:url(#linear-gradient-5);stroke:url(#linear-gradient-6);stroke-width:1.027px;}.cls-2,.cls-4,.cls-5,.cls-6{opacity:.53;}.cls-16{fill:url(#linear-gradient-3);}.cls-17{fill:url(#linear-gradient-4);}.cls-18{opacity:.9;}.cls-19{opacity:.81;}.cls-3{stroke:#4faade;stroke-width:.069px;}.cls-4{fill:url(#linear-gradient-9);stroke:url(#linear-gradient-10);stroke-width:.682px;}.cls-5{fill:url(#linear-gradient-11);stroke:url(#linear-gradient-12);stroke-width:.45px;}.cls-20{mask:url(#mask-1);}.cls-6{fill:url(#linear-gradient-7);stroke:url(#linear-gradient-8);stroke-width:1.169px;}</style><filter id="luminosity-noclip" x="50.72" y="119.04" width="93.12" height="77.76" color-interpolation-filters="sRGB" filterUnits="userSpaceOnUse"><feFlood flood-color="#fff" result="bg"/><feBlend in="SourceGraphic" in2="bg"/></filter><mask id="mask" x="50.72" y="119.04" width="93.12" height="77.76" maskUnits="userSpaceOnUse"><g class="cls-10"><image width="388" height="324" transform="translate(50.72 119.04) scale(.24)" xlink:href="Rom&amp;cola1.png"/></g></mask><linearGradient id="linear-gradient" x1="97.096" y1="121.291" x2="101.876" y2="208.252" gradientUnits="userSpaceOnUse"><stop offset="0" stop-color="#be4c27"/><stop offset=".19" stop-color="#b94926"/><stop offset=".393" stop-color="#ac4323"/><stop offset=".601" stop-color="#97391f"/><stop offset=".811" stop-color="#7a2a1a"/><stop offset="1" stop-color="#591a14"/></linearGradient><linearGradient id="linear-gradient-2" x1="96.986" y1="118.787" x2="101.171" y2="194.924" xlink:href="#linear-gradient"/><filter id="luminosity-noclip-2" x="51.2" y="115.44" width="92.16" height="12.72" color-interpolation-filters="sRGB" filterUnits="userSpaceOnUse"><feFlood flood-color="#fff" result="bg"/><feBlend in="SourceGraphic" in2="bg"/></filter><mask id="mask-1" x="51.2" y="115.44" width="92.16" height="12.72" maskUnits="userSpaceOnUse"><g class="cls-8"><image width="384" height="53" transform="translate(51.2 115.44) scale(.24)" xlink:href="Rom&amp;cola2.png"/></g></mask><linearGradient id="linear-gradient-3" x1="97.042" y1="117.127" x2="97.666" y2="128.476" gradientUnits="userSpaceOnUse"><stop offset="0" stop-color="#be4c27"/><stop offset=".449" stop-color="#bc4b26"/><stop offset=".611" stop-color="#b54725"/><stop offset=".726" stop-color="#a94123"/><stop offset=".819" stop-color="#98391f"/><stop offset=".899" stop-color="#822e1b"/><stop offset=".968" stop-color="#682116"/><stop offset="1" stop-color="#591a14"/></linearGradient><linearGradient id="linear-gradient-4" x1="119.223" y1="121.201" x2="119.26" y2="121.882" xlink:href="#linear-gradient"/><linearGradient id="linear-gradient-5" x1="59.426" y1="167.636" x2="88.05" y2="167.636" gradientTransform="translate(-15.003 10.234) rotate(-5.165)" xlink:href="#linear-gradient"/><linearGradient id="linear-gradient-6" x1="70.318" y1="150.879" x2="72.428" y2="189.285" gradientTransform="translate(52.618 28.377) rotate(21.031) scale(1 .741)" xlink:href="#linear-gradient"/><linearGradient id="linear-gradient-7" x1="102.772" y1="172.193" x2="130.096" y2="172.193" gradientTransform="translate(-15.003 10.234) rotate(-5.165)" xlink:href="#linear-gradient"/><linearGradient id="linear-gradient-8" x1="112.798" y1="149.093" x2="114.833" y2="186.104" gradientTransform="translate(66.235 -19.32) rotate(20.293) scale(1 .961)" xlink:href="#linear-gradient"/><linearGradient id="linear-gradient-9" x1="82.173" y1="174.735" x2="104.797" y2="174.735" gradientTransform="translate(-15.003 10.234) rotate(-5.165)" xlink:href="#linear-gradient"/><linearGradient id="linear-gradient-10" x1="102.34" y1="160.645" x2="104.351" y2="197.218" gradientTransform="translate(-10.13 115.976) rotate(-31.206) scale(.561 .582)" xlink:href="#linear-gradient"/><linearGradient id="linear-gradient-11" x1="111.058" y1="150.904" x2="126.173" y2="150.904" gradientTransform="translate(-90.072 148.54) rotate(-47.186)" xlink:href="#linear-gradient"/><linearGradient id="linear-gradient-12" x1="102.551" y1="110.703" x2="103.732" y2="132.186" gradientTransform="translate(-27.692 116.752) rotate(-20.99) scale(1 .741)" xlink:href="#linear-gradient"/></defs><path class="cls-15" d="m52.042,108.69l1.59,77.563,16.326,3.275c2.888.579,5.814.95,8.756,1.11l20.949,1.14c2.426.132,4.857.12,7.281-.035l15.929-1.021c3.374-.216,6.723-.71,10.015-1.476l7.77-1.809,2.98-78.747-23.862,2.634c-.782.086-1.566.151-2.351.194l-22.671,1.251c-.79.044-1.581.065-2.373.065l-16.667-.323c-3.074,0-6.095-.385-9.114-.658l-14.557-3.163Z"/><path class="cls-15" d="m53.632,186.215l-1.031,7.569c-.365,2.677.057,5.401,1.213,7.843h0c1.138,2.402,3.325,4.142,5.922,4.711l16.025,3.51c.479.105.966.169,1.456.19l25.545,1.135c.361.016.723.009,1.084-.02l25.081-2.059c.666-.055,1.324-.187,1.959-.394l3.337-1.088c2.987-.974,5.204-3.503,5.779-6.592l.657-3.532v-10.081s-40.995,4.37-40.995,4.37l-20.949-1.148-25.082-4.415Z"/><g class="cls-19"><g class="cls-9"><g><path class="cls-7" d="m53.351,121.774l3.361,67.507,15.189,2.898c2.687.513,5.409.841,8.146.983l19.489,1.009c2.257.117,4.518.106,6.774-.031l14.819-.903c3.139-.191,6.255-.628,9.317-1.306l7.229-1.601,3.57-68.555-22.997,1.204c-.727.076-1.457.134-2.187.172l-21.091,1.107c-.735.039-1.471.058-2.207.058h-15.481c-2.86,0-5.711-.291-8.504-.869l-15.424-1.672Z"/><path class="cls-1" d="m53.351,121.774l3.361,67.507,15.189,2.898c2.687.513,5.409.841,8.146.983l19.489,1.009c2.257.117,4.518.106,6.774-.031l14.819-.903c3.139-.191,6.255-.628,9.317-1.306l7.229-1.601,3.57-68.555-22.997,1.204c-.727.076-1.457.134-2.187.172l-21.091,1.107c-.735.039-1.471.058-2.207.058h-15.481c-2.86,0-5.711-.291-8.504-.869l-15.424-1.672Z"/></g></g></g><path class="cls-13" d="m106.794,208.958c.048.23.869.329,13.357-1.49,18.308-2.667,7.782-1.242,10.725-1.594,1.914-.229,2.752-.597,4.465-1.811,2.26-1.601,3.904-4.547,3.274-5.463-.509-.74-2.279.166-8.708,2.483-5.086,1.833-7.628,2.749-9.625,3.264-3.394.875-5.978,1.216-10.214,2.909-1.498.599-3.35,1.339-3.274,1.703Z"/><ellipse class="cls-3" cx="97.84" cy="108.69" rx="45.798" ry="4.363"/><ellipse class="cls-14" cx="97.84" cy="108.582" rx="45.798" ry="4.363"/><g class="cls-18"><g class="cls-20"><ellipse class="cls-16" cx="97.298" cy="121.774" rx="43.946" ry="4.276"/></g></g><circle class="cls-17" cx="119.238" cy="121.48" r=".294"/><g><g><path class="cls-11" d="m137.799,85.942c-13.359-1.38-24.849,7.8-27.159,20.206,3.38.232,6.634.811,10.05,1.467,4.647.893,8.56,2.663,13.408,2.45.036-.002.071.063.104.173.061-.014.123-.025.183-.04-.052.013.045.898.17,2.138.179,1.775.747,3.51,1.744,4.989.633.938,1.183,2.038,1.909,3.08,1.818,2.611,3.66,5.19,5.471,7.802.383.552.489,1.417.497,2.311.12.085.256.198.439.387.484.502.847,1.458,1.172,2.385,8.938-4.226,14.964-13.605,14.232-24.305-.817-11.954-10.303-21.814-22.222-23.045Z"/><path class="cls-12" d="m137.531,89.331c-11.477-1.233-21.376,6.559-23.498,17.16,2.204.289,4.395.69,6.658,1.125,4.647.893,8.56,2.663,13.408,2.45.036-.002.071.063.104.173.061-.014.123-.025.183-.04-.094.023.296,2.876.463,5.528,1.451,1.598,2.15,2.94,3.36,4.678,1.818,2.611,3.66,5.19,5.471,7.802.348.502.462,1.263.487,2.068,7.79-3.604,13.075-11.703,12.468-20.983-.675-10.319-8.823-18.858-19.105-19.962Z"/></g><g><path class="cls-11" d="m116.378,101.287l5.795-6.839c.806-.951,2.491-.634,3.216.606l6.808,11.644c.906,1.55-.413,3.106-2.09,2.467l-12.604-4.805c-1.342-.512-1.932-2.121-1.126-3.073Z"/><path class="cls-11" d="m144.689,92.588l6.839,5.795c.951.806.634,2.491-.606,3.216l-11.644,6.808c-1.55.906-3.106-.413-2.467-2.09l4.805-12.604c.512-1.342,2.121-1.932,3.073-1.126Z"/><path class="cls-11" d="m154.902,104.942l.738,8.934c.103,1.243-1.313,2.209-2.702,1.845l-13.048-3.419c-1.737-.455-1.905-2.488-.266-3.222l12.31-5.514c1.311-.587,2.866.134,2.969,1.377Z"/><path class="cls-11" d="m153.388,120.899l-5.795,6.839c-.806.951-2.491.634-3.216-.606l-6.808-11.644c-.906-1.55.413-3.106,2.09-2.467l12.604,4.805c1.342.512,1.932,2.121,1.126,3.073Z"/><path class="cls-11" d="m128.732,91.074l8.934-.738c1.243-.103,2.209,1.313,1.845,2.702l-3.419,13.048c-.455,1.737-2.488,1.905-3.222.266l-5.514-12.31c-.587-1.311.134-2.866,1.377-2.969Z"/></g></g><path class="cls-2" d="m78.691,184.883c-4.341.702-8.798.245-12.903-1.333h0c-5.014-1.928-7.516-7.556-5.588-12.57l.638-.609c2.665-2.541,4.103-6.085,4.064-9.768-.019-1.786.165-3.329,1.192-3.786,3.057-1.359,6.637-.768,9.356,1.18l5.466,5.017c5.871,4.643,8.284,5.97,6.356,10.984l-2.475,6.438c-1.304,3.392-2.704,3.895-6.105,4.446Z"/><path class="cls-6" d="m114.449,188.397l-6.47-2.392c-5.039-1.863-5.516-9.897-3.653-14.935l3.001-11.346c1.863-5.039,7.458-7.613,12.497-5.75l6.47,2.392c3.883,1.436,3.184,5.378,1.806,9.416-.853,2.502-1.29,5.128-1.259,7.771l.105,9.094c-1.863,5.039-7.458,7.613-12.497,5.75Z"/><path class="cls-4" d="m98.794,183.984l-5.24,2.435c-2.579,1.562-4.515-1.746-6.201-4.53l-4.205-5.728c-1.686-2.784-.963-6.307,1.616-7.869l3.311-2.006c1.987-1.204,6.419-1.888,7.81.291.862,1.35,2.23,4.45,3.459,5.455l5.6,3.613c1.686,2.784-3.57,6.776-6.148,8.338Z"/><path class="cls-5" d="m106.47,168.574c-1.207,1.502-2.793,2.661-4.592,3.352h0c-2.198.843-3.639.447-4.482-1.751l-1.537-2.487c-.847-2.174-.668-1.396-1.001-2.973-.162-.766,1.069-2.335,1.269-2.785.597-1.339,2.216-5.914,3.673-6.077l2.061-.42c3.274-.211,3.367,4.883,4.211,7.081l1.083,2.823c.571,1.487.263,2.062-.684,3.239Z"/></svg>