<?xml version="1.0" encoding="UTF-8"?><svg id="Lag_1" xmlns="http://www.w3.org/2000/svg" viewBox="0 0 244.894 126.229"><defs><style>.cls-1{fill:#f7b59d;stroke:#f7b59d;stroke-miterlimit:10;}.cls-2{fill:#a1b795;}.cls-3{fill:#f8f6b1;}</style></defs><ellipse class="cls-3" cx="200.437" cy="57.153" rx="44.545" ry="45.534"/><g><path class="cls-2" d="M80.717,14.353l-18.242,51.224c-4.429,12.411-7.803,20.848-10.123,25.312-2.32,4.463-5.308,8.337-8.963,11.62-5.378,4.724-11.529,7.086-18.453,7.086-7.417,0-13.436-2.652-18.057-7.957C2.257,96.333-.053,89.417-.053,80.89c0-11.249,3.638-21.098,10.913-29.546,3.902-4.523,8.787-8.167,14.657-10.929,5.87-2.763,11.669-4.144,17.398-4.144,2.742,0,4.964,.711,6.669,2.132,1.704,1.421,2.557,3.272,2.557,5.555,0,2.482-.914,4.464-2.741,5.945-1.02,.84-3.058,1.44-6.116,1.801-7.03,.721-12.672,2.543-16.924,5.465-3.585,2.483-6.415,5.686-8.488,9.608-2.075,3.924-3.111,8.067-3.111,12.431,0,4.483,1.036,8.026,3.111,10.63,2.073,2.602,4.885,3.903,8.435,3.903,4.218,0,7.908-2.082,11.072-6.246s6.607-11.47,10.334-21.919L65.955,14.353h-10.281c-4.85,0-7.276-1.962-7.276-5.886,0-2.642,.861-4.714,2.583-6.215,1.722-1.502,4.113-2.252,7.171-2.252h36.009l3.691,.961c1.476,.921,2.214,2.562,2.214,4.924,0,2.643-.862,4.714-2.583,6.216-1.722,1.501-4.112,2.252-7.17,2.252h-9.595Z"/><path class="cls-2" d="M100.857,68.879h5.958c4.429,0,6.643,1.782,6.643,5.345,0,2.442-.783,4.345-2.346,5.705-1.564,1.361-3.752,2.042-6.564,2.042h-8.383c-3.094,0-5.528-.721-7.302-2.162-1.776-1.441-2.663-3.402-2.663-5.885,0-1.321,.369-3.003,1.107-5.045l8.699-24.381,.58-1.682c1.616-4.523,4.218-6.785,7.803-6.785,1.476,0,2.75,.561,3.822,1.681,1.072,1.122,1.608,2.463,1.608,4.024,0,1.281-.474,3.242-1.423,5.885l-7.539,21.258Zm6.96-52.005c2.038,0,3.77,.811,5.193,2.433,1.423,1.621,2.135,3.594,2.135,5.915s-.712,4.294-2.135,5.915-3.155,2.432-5.193,2.432-3.77-.811-5.193-2.432-2.135-3.593-2.135-5.915,.712-4.294,2.135-5.915c1.423-1.622,3.154-2.433,5.193-2.433Z"/><path class="cls-2" d="M126.902,77.287l-13.761,38.553c-1.898,5.324-4.674,7.987-8.33,7.987-1.405,0-2.61-.531-3.611-1.592-1.002-1.061-1.503-2.332-1.503-3.813,0-1.241,.44-3.122,1.318-5.645l25.412-71.342c1.3-3.604,3.55-5.404,6.749-5.404,2.214,0,3.971,1.201,5.272,3.603,2.46-2.962,5.465-4.443,9.016-4.443,3.691,0,6.669,1.591,8.936,4.773,2.267,3.184,3.401,7.378,3.401,12.581,0,9.849-2.689,17.876-8.066,24.081-1.758,2.042-3.568,3.443-5.431,4.204-1.863,.761-4.464,1.141-7.803,1.141-3.585,0-6.055-.279-7.408-.841-1.354-.561-2.751-1.841-4.191-3.843Zm4.323-12.251c.878,1.762,1.713,2.903,2.504,3.423,.791,.521,2.047,.78,3.77,.78,2.495,0,4.446-1.06,5.852-3.183,2.847-4.283,4.27-8.687,4.27-13.211,0-3.883-1.617-5.825-4.85-5.825-3.55,0-6.098,2.342-7.645,7.026-.176,.521-.316,.961-.422,1.32l-3.48,9.669Z"/><path class="cls-2" d="M180.151,52.425l-1.001,2.763c-1.547,3.964-3.743,5.945-6.59,5.945-1.442,0-2.734-.57-3.875-1.712-1.143-1.141-1.714-2.451-1.714-3.934,0-1.4,.509-3.262,1.529-5.584l7.012-16.215c1.721-3.883,3.866-5.824,6.432-5.824,1.371,0,2.548,.51,3.532,1.531,.984,1.021,1.476,2.231,1.476,3.633,0,.36-.106,1.141-.317,2.342-.141,.881-.211,1.662-.211,2.342,0,2.522,.825,5.104,2.478,7.747l3.005,4.744c3.058,4.845,4.587,9.528,4.587,14.052,0,5.045-1.653,9.259-4.956,12.642-3.304,3.384-7.417,5.074-12.337,5.074h-11.019c-4.464,0-6.696-1.761-6.696-5.284,0-2.441,.791-4.354,2.373-5.735,1.581-1.381,3.76-2.072,6.538-2.072h6.115c4.885,0,7.328-2.021,7.328-6.064,0-1.481-.457-3.223-1.371-5.225l-2.32-5.165Z"/><path class="cls-2" d="M230.396,84.433h6.116c4.463,0,6.696,1.781,6.696,5.345,0,2.441-.783,4.344-2.346,5.705-1.565,1.36-3.753,2.042-6.564,2.042h-8.541c-1.02,3.442-2.866,8.007-5.536,13.691-4.64,10.008-11.388,15.014-20.245,15.014-5.378,0-9.894-1.922-13.55-5.766-3.655-3.843-5.483-8.607-5.483-14.292,0-3.964,.993-7.657,2.979-11.08s4.596-5.995,7.829-7.717c3.725-1.962,9.226-2.942,16.502-2.942h8.594l1.529-4.323c-2.602,1.241-4.991,1.861-7.171,1.861-3.761,0-6.81-1.09-9.147-3.272-2.338-2.182-3.506-5.015-3.506-8.498,0-2.121,.755-5.304,2.267-9.548l5.747-16.154,.58-1.682c1.687-4.523,4.305-6.785,7.855-6.785,1.547,0,2.838,.561,3.875,1.681,1.036,1.122,1.555,2.543,1.555,4.264,0,1.162-.457,3.043-1.371,5.646l-5.167,14.353c-.809,2.322-1.231,3.823-1.266,4.504-.105,1.962,.984,2.942,3.269,2.942,1.616,0,3.269-.541,4.956-1.621,1.687-1.081,2.759-2.302,3.216-3.664l7.065-19.637,.527-1.682c1.652-4.523,4.271-6.785,7.856-6.785,1.546,0,2.838,.57,3.875,1.711,1.037,1.142,1.555,2.553,1.555,4.233,0,1.162-.263,2.503-.791,4.024l-.633,1.621-13.128,36.812Zm-17.24,13.092h-7.381c-8.085,0-12.126,2.882-12.126,8.647,0,2.042,.554,3.683,1.661,4.924,1.107,1.24,2.591,1.862,4.455,1.862,2.565,0,4.841-1.142,6.828-3.424,1.985-2.281,4.173-6.285,6.564-12.01Z"/></g><ellipse class="cls-1" cx="107.369" cy="25.441" rx="9.545" ry="9.757"/></svg>