<?xml version="1.0" encoding="UTF-8"?><svg id="Lag_1" xmlns="http://www.w3.org/2000/svg" width="371" height="282" viewBox="0 0 371 282"><defs><style>.cls-1{fill:#f7b59d;stroke:#f7b59d;stroke-miterlimit:10;}.cls-2{fill:#a1b795;}.cls-3{fill:#f8f6b1;}</style></defs><ellipse class="cls-3" cx="248.45" cy="138.06" rx="44.55" ry="45.53"/><g><path class="cls-2" d="M128.75,95.26l-18.23,51.22c-4.43,12.41-7.8,20.85-10.12,25.31-2.32,4.46-5.31,8.34-8.96,11.62-5.38,4.72-11.52,7.09-18.44,7.09-7.41,0-13.43-2.65-18.05-7.96-4.62-5.3-6.93-12.22-6.93-20.75,0-11.25,3.64-21.1,10.91-29.55,3.9-4.52,8.78-8.17,14.65-10.93,5.87-2.76,11.66-4.14,17.39-4.14,2.74,0,4.96,.71,6.67,2.13,1.7,1.42,2.56,3.27,2.56,5.55,0,2.48-.91,4.46-2.74,5.95-1.02,.84-3.06,1.44-6.11,1.8-7.03,.72-12.67,2.54-16.92,5.46-3.58,2.48-6.41,5.69-8.48,9.61-2.07,3.92-3.11,8.07-3.11,12.43s1.04,8.03,3.11,10.63c2.07,2.6,4.88,3.9,8.43,3.9,4.22,0,7.9-2.08,11.07-6.25s6.6-11.47,10.33-21.92l18.23-51.22h-10.28c-4.85,0-7.27-1.96-7.27-5.89,0-2.64,.86-4.71,2.58-6.21,1.72-1.5,4.11-2.25,7.17-2.25h35.99l3.69,.96c1.48,.92,2.21,2.56,2.21,4.92,0,2.64-.86,4.71-2.58,6.22-1.72,1.5-4.11,2.25-7.17,2.25h-9.59Z"/><path class="cls-2" d="M148.88,149.79h5.96c4.43,0,6.64,1.78,6.64,5.34,0,2.44-.78,4.34-2.35,5.71-1.56,1.36-3.75,2.04-6.56,2.04h-8.38c-3.09,0-5.53-.72-7.3-2.16-1.77-1.44-2.66-3.4-2.66-5.88,0-1.32,.37-3,1.11-5.04l8.7-24.38,.58-1.68c1.62-4.52,4.22-6.79,7.8-6.79,1.48,0,2.75,.56,3.82,1.68,1.07,1.12,1.61,2.46,1.61,4.02,0,1.28-.47,3.24-1.42,5.88l-7.54,21.26Zm6.96-52c2.04,0,3.77,.81,5.19,2.43,1.42,1.62,2.13,3.59,2.13,5.92s-.71,4.29-2.13,5.92-3.15,2.43-5.19,2.43-3.77-.81-5.19-2.43-2.13-3.59-2.13-5.92,.71-4.29,2.13-5.92c1.42-1.62,3.15-2.43,5.19-2.43Z"/><path class="cls-2" d="M174.92,158.19l-13.75,38.55c-1.9,5.32-4.67,7.99-8.33,7.99-1.4,0-2.61-.53-3.61-1.59-1-1.06-1.5-2.33-1.5-3.81,0-1.24,.44-3.12,1.32-5.64l25.4-71.34c1.3-3.6,3.55-5.4,6.75-5.4,2.21,0,3.97,1.2,5.27,3.6,2.46-2.96,5.46-4.44,9.01-4.44s6.67,1.59,8.93,4.77c2.27,3.18,3.4,7.38,3.4,12.58,0,9.85-2.69,17.88-8.06,24.08-1.76,2.04-3.57,3.44-5.43,4.2-1.86,.76-4.46,1.14-7.8,1.14-3.58,0-6.05-.28-7.4-.84-1.35-.56-2.75-1.84-4.19-3.84Zm4.32-12.25c.88,1.76,1.71,2.9,2.5,3.42,.79,.52,2.05,.78,3.77,.78,2.49,0,4.44-1.06,5.85-3.18,2.85-4.28,4.27-8.69,4.27-13.21,0-3.88-1.62-5.83-4.85-5.83-3.55,0-6.1,2.34-7.64,7.03-.18,.52-.32,.96-.42,1.32l-3.48,9.67Z"/><path class="cls-2" d="M228.14,133.33l-1,2.76c-1.55,3.96-3.74,5.95-6.59,5.95-1.44,0-2.73-.57-3.87-1.71-1.14-1.14-1.71-2.45-1.71-3.93,0-1.4,.51-3.26,1.53-5.58l7.01-16.21c1.72-3.88,3.86-5.82,6.43-5.82,1.37,0,2.55,.51,3.53,1.53,.98,1.02,1.48,2.23,1.48,3.63,0,.36-.11,1.14-.32,2.34-.14,.88-.21,1.66-.21,2.34,0,2.52,.82,5.1,2.48,7.75l3,4.74c3.06,4.84,4.58,9.53,4.58,14.05,0,5.04-1.65,9.26-4.95,12.64-3.3,3.38-7.41,5.07-12.33,5.07h-11.01c-4.46,0-6.69-1.76-6.69-5.28,0-2.44,.79-4.35,2.37-5.74,1.58-1.38,3.76-2.07,6.53-2.07h6.11c4.88,0,7.33-2.02,7.33-6.06,0-1.48-.46-3.22-1.37-5.22l-2.32-5.17Z"/><path class="cls-2" d="M278.37,165.34h6.11c4.46,0,6.69,1.78,6.69,5.34,0,2.44-.78,4.34-2.35,5.71-1.56,1.36-3.75,2.04-6.56,2.04h-8.54c-1.02,3.44-2.86,8.01-5.53,13.69-4.64,10.01-11.38,15.01-20.24,15.01-5.38,0-9.89-1.92-13.54-5.77-3.65-3.84-5.48-8.61-5.48-14.29,0-3.96,.99-7.66,2.98-11.08s4.59-6,7.83-7.72c3.72-1.96,9.22-2.94,16.49-2.94h8.59l1.53-4.32c-2.6,1.24-4.99,1.86-7.17,1.86-3.76,0-6.81-1.09-9.14-3.27-2.34-2.18-3.5-5.01-3.5-8.5,0-2.12,.75-5.3,2.27-9.55l5.74-16.15,.58-1.68c1.69-4.52,4.3-6.79,7.85-6.79,1.55,0,2.84,.56,3.87,1.68,1.04,1.12,1.55,2.54,1.55,4.26,0,1.16-.46,3.04-1.37,5.65l-5.16,14.35c-.81,2.32-1.23,3.82-1.27,4.5-.1,1.96,.98,2.94,3.27,2.94,1.62,0,3.27-.54,4.95-1.62,1.69-1.08,2.76-2.3,3.21-3.66l7.06-19.64,.53-1.68c1.65-4.52,4.27-6.79,7.85-6.79,1.55,0,2.84,.57,3.87,1.71,1.04,1.14,1.55,2.55,1.55,4.23,0,1.16-.26,2.5-.79,4.02l-.63,1.62-13.12,36.81Zm-17.23,13.09h-7.38c-8.08,0-12.12,2.88-12.12,8.65,0,2.04,.55,3.68,1.66,4.92,1.11,1.24,2.59,1.86,4.45,1.86,2.56,0,4.84-1.14,6.82-3.42,1.98-2.28,4.17-6.29,6.56-12.01Z"/></g><ellipse class="cls-1" cx="155.39" cy="106.35" rx="9.55" ry="9.76"/></svg>